<?xml version="1.0" encoding="UTF-8"?>
<svg width="512pt" height="512pt" version="1.1" viewBox="0 0 512 512" xmlns="http://www.w3.org/2000/svg">
 <path d="m106.76 24.41c-0.49219-1.625 0.40625-3.3398 2.0039-3.832 1.625-0.49219 3.3398 0.40625 3.832 2.0039 10.277 33.004 23.453 52.887 42.379 81.508 4.7305 7.1406 9.8125 14.832 15.27 23.336 2.0898 3.25 3.7461 6.4141 5.0508 9.5195 4.5859 10.973 4.4102 20.871 1.1016 29.348-3.2812 8.3906-9.6367 15.27-17.504 20.32-2.875 1.8594-5.9492 3.4531-9.1445 4.7891-10.535 4.4102-18.402 9.1133-23.715 14.457-5.0781 5.1094-7.8086 10.797-8.3008 17.387-0.11719 1.6836-1.5977 2.9609-3.2812 2.8438-1.6836-0.11719-2.9609-1.5977-2.8438-3.2812 0.63672-8.1289 3.9492-15.094 10.102-21.277 5.9219-5.9492 14.426-11.09 25.719-15.789 2.875-1.1914 5.6328-2.6133 8.1836-4.2656 6.8203-4.3828 12.309-10.277 15.094-17.387 2.7578-7.0547 2.8438-15.383-1.0469-24.758-1.1602-2.7578-2.6719-5.6328-4.5586-8.5625-5.4844-8.5352-10.535-16.168-15.238-23.281-19.246-29.055-32.598-49.23-43.133-83.047zm266.99 413.43c13.41-4.3242 25.398-7.1133 34.426-8.1562 10.449-1.1914 17.504 0.23047 19.246 4.6445 2.0039 5.1094-4.3828 12.422-16.285 20.117-10.77 6.9375-26.328 14.715-44.09 21.684l-0.058594 0.027344c-17.793 6.9648-34.512 11.812-47.141 14.051-13.961 2.4375-23.629 1.3945-25.629-3.7148-1.7109-4.3828 2.4375-10.188 10.855-16.398 7.1133-5.2539 17.531-11.203 29.984-17.039 0.49219-3.4258 0.52344-6.8516 0.20312-10.277-0.75391-8.5352-3.6289-17.066-6.9375-25.168-1.25-3.0195-2.5234-6.4727-3.918-10.188-7.2266-19.418-17.008-45.688-35.617-49.52-0.17578-0.027344-0.34766-0.085938-0.52344-0.14453-11.582-1.4531-23.164-5.8359-34.078-12.715-20.523-12.977-38.664-34.859-49.52-62.582l-0.20312-0.55078c-5.0508-13.062-8.0391-26.27-9.1445-39.012-1.1016-12.859-0.26172-25.281 2.3789-36.66 0.027343-0.20312 0.085937-0.37891 0.14453-0.58203 0.085938-0.32031 0.14453-0.63672 0.23047-0.95703l0.11719 0.027344c1.625-3.4258 6.6758-7.5742 14.223-11.957 9.1133-5.2539 22.059-11.379 36.777-17.125 14.688-5.7461 28.359-10.07 38.633-12.395 8.9414-2.0312 15.703-2.3516 19.07-0.66797l0.11719-0.20312c10.07 6.6758 19.535 15.527 27.777 26.152 7.9258 10.188 14.715 22.031 19.855 35.211 10.855 27.719 12.422 56.078 6.1523 79.531-3.4844 13.121-9.4336 24.703-17.531 33.844-10.914 15.383-0.34766 41.16 7.4883 60.199 1.4805 3.5977 2.875 6.9648 4.0352 10.102 3.0469 8.1562 6.707 16.344 11.957 23.105 2.0625 2.6719 4.3828 5.1094 7.0234 7.2852zm-40.578 22.93c-10.07 4.9336-18.488 9.8672-24.469 14.281-6.0391 4.4414-9.3477 7.7773-8.7656 9.2305 0.78516 2.0039 7.9258 1.8281 18.867-0.085938 12.25-2.1484 28.531-6.8789 45.922-13.699l0.058594-0.027344c17.414-6.8203 32.598-14.398 43.047-21.16 9.3164-6.0078 14.688-10.738 13.902-12.742-0.58203-1.4531-5.3125-1.6562-12.859-0.78516s-17.414 3.0469-28.504 6.4141c2.2344 1.1914 4.6719 2.1758 7.3164 2.9609 1.625 0.46484 2.5547 2.1758 2.0898 3.8008s-2.1758 2.5547-3.8008 2.0898c-10.566-3.1055-18.199-9.2031-24.035-16.75-5.6875-7.3711-9.6094-16.051-12.828-24.703-1.1016-2.9336-2.4961-6.3281-3.9766-9.9258-6.5898-15.992-14.977-36.398-12.047-53.207-4.2383 3.1055-8.8516 5.6602-13.844 7.6055-5.3125 2.0898-10.77 3.3672-16.285 3.918 13.496 10.449 21.219 31.117 27.258 47.312 1.3359 3.6289 2.6133 6.9961 3.832 10.016 3.5117 8.5625 6.5586 17.648 7.3711 26.965 0.83984 9.5195-0.60938 19.215-6.2422 28.68-0.87109 1.4531-2.7266 1.9453-4.207 1.0742-1.4531-0.87109-1.9453-2.7266-1.0742-4.207 1.3945-2.3203 2.4688-4.6719 3.3086-7.0547zm-25.719-290.59c-2.3203 3.0195-6.8203 6.4453-13.004 10.016-9.1133 5.2539-22.09 11.379-36.777 17.125-14.688 5.7461-28.359 10.07-38.633 12.395-6.8203 1.5391-12.395 2.0898-16.141 1.5078-1.8867 9.7539-2.4102 20.289-1.4805 31.176 0.43359 5.2266 1.2188 10.508 2.3516 15.848 3.5977-2.875 9.4922-5.457 17.156-7.5742-1.5664-8.2422-2.5234-16.633-2.8164-24.961-0.058594-2.207 2.1172-3.7734 4.1797-2.9609 1.1602 0.46484 1.9141 1.5078 1.9453 2.7578 0.28906 7.9258 1.1602 15.879 2.6406 23.688 13.934-3.1367 32.598-5.3398 53.117-5.9492l0.55078-0.027344c21.828-0.60938 41.684 0.72656 56.109 3.3398 8.5352 1.5391 15.324 3.6875 19.797 6.3281-1.5391-8.9102-4.0352-17.938-7.5469-26.938-4.9336-12.598-11.438-23.945-18.984-33.699-6.7617-8.7383-14.367-16.168-22.496-22.117zm-18.285-0.95703c-9.957 2.2656-23.309 6.4727-37.734 12.133-14.426 5.6602-27.082 11.641-35.934 16.719-7.5469 4.3555-12.133 7.3438-11.902 7.9258 0 0.027344 0.027344 0.027344 0.058594 0.058594l0.37891 0.085937c1.4531 0.11719 6.4453-0.78516 13.672-2.4375 9.957-2.2656 23.309-6.4727 37.734-12.133 14.426-5.6602 27.082-11.641 35.934-16.719 7.5742-4.3555 12.133-7.3438 11.902-7.9258-0.23047-0.58203-5.6016 0.34766-14.105 2.2656zm1.7422 166.23c2.4102 0.28906 4.1523-2.0898 3.1914-4.3242-0.46484-0.98828-1.3359-1.6562-2.4102-1.7695-9.7812-1.2773-18.52-4.8203-26.559-10.566-8.1289-5.8633-14.746-13.438-20.145-21.855-1.4531-2.2344-4.8203-1.7109-5.543 0.83984-0.23047 0.87109-0.11719 1.7109 0.37891 2.4688 8.3906 13.062 19.508 24.148 33.875 30.449 5.543 2.4102 11.203 3.9492 17.184 4.7305zm-82.812-61.535c0.72656 2.1172 1.4805 4.207 2.293 6.2969v0.027344c10.363 26.441 27.605 47.285 47.051 59.59 19.188 12.133 40.551 15.906 59.504 8.5039 18.953-7.4297 32.047-24.703 37.91-46.645 2.7852-10.48 3.9492-22.031 3.2812-34.047-4.1797 3.1914-11.262 6.0078-20.434 8.2148-14.164 3.4258-33.758 5.8633-55.469 6.5039l-0.55078 0.027343c-21.828 0.60938-41.684-0.72656-56.109-3.3398-7.1992-1.3047-13.148-3.0469-17.531-5.1094zm127.54-21.305c-14.051-2.5547-33.469-3.832-54.859-3.25l-0.55078 0.027343c-20.172 0.58203-38.461 2.7578-52.043 5.8047 0.75391 3.2812 1.5977 6.5312 2.5547 9.7539 0.28906 1.0156 0.085937 2.0039-0.58203 2.8438-1.5977 1.8867-4.5859 1.2773-5.3125-1.1016-0.98828-3.3086-1.8594-6.6484-2.6406-10.043-10.188 2.7266-16.285 5.6328-16.254 8.2148v0.027343c0.085937 2.9023 8.0117 5.8047 20.754 8.0977 14.051 2.5547 33.469 3.832 54.859 3.25l0.55078-0.027344c21.277-0.60938 40.406-2.9883 54.191-6.3281 12.453-3.0195 20.117-6.2969 20.059-9.2031v-0.027344c-0.085938-2.9023-8.0117-5.8047-20.754-8.0977zm-251.14-87.457c0.26172-1.6836 1.8594-2.8164 3.5117-2.5234 1.6836 0.26172 2.8164 1.8594 2.5234 3.5117-0.14453 0.89844-0.17578 1.8281-0.11719 2.7266 0.20312 2.6719 1.3945 5.168 3.2812 7.082 1.9453 2.0039 4.5859 3.4258 7.6641 3.918 1.2188 0.20312 2.5234 0.26172 3.8906 0.14453 13.527-1.0742 21.305-7.1992 26.793-11.523 0.69531-0.55078 1.3633-1.0742 2.3789-1.8281 1.3633-1.0156 3.2812-0.72656 4.2969 0.60938 1.0156 1.3633 0.72656 3.2812-0.60937 4.2969-0.43359 0.32031-1.3047 1.0156-2.2344 1.7422-6.0938 4.7891-14.715 11.609-30.102 12.828-1.8281 0.14453-3.6289 0.058594-5.3398-0.23047-4.4414-0.72656-8.2734-2.7852-11.09-5.6875-2.875-2.9609-4.6719-6.7617-4.9922-10.887-0.11719-1.3633-0.058594-2.7578 0.17578-4.1797z"/>
</svg>
