<?xml version="1.0" encoding="UTF-8"?>
<svg width="512pt" height="512pt" version="1.1" viewBox="0 0 512 512" xmlns="http://www.w3.org/2000/svg">
 <g>
  <path d="m370.25 466.23h-0.003906c-13.461 0-41.641-2.2383-79.156-17.227-45.863-18.32-91.148-49.645-134.61-93.102-86.605-86.598-118.42-151-109.81-222.3 4.0508-35.77 19.395-53.66 40.621-75.02 8.2656-8.2656 19.148-12.805 30.66-12.805 11.051 0 21.363 4.2305 29.047 11.914l62.02 62.02c16.203 16.262 15.828 43.031-0.82812 59.688l-17.746 17.723c-4.8164 4.8125-5.7695 12.285-2.3125 18.176 13.938 23.75 26.59 42.492 46.562 62.5 17.609 17.609 35.703 31.141 62.453 46.699 2.2812 1.3242 4.8789 2.0273 7.5078 2.0273 3.9961 0 7.7539-1.5547 10.578-4.3711l17.848-17.824c8.2305-8.2305 19.105-12.766 30.625-12.766 11.039 0 21.352 4.2227 29.043 11.883l62.031 62.031c16.188 16.246 15.816 43.027-0.81641 59.719l-0.089844 0.089844c-22.242 21.766-39.48 36.344-75.023 40.57-0.035156 0.003907-0.074218 0.007813-0.11328 0.011719-1.0195 0.10938-3.9062 0.36328-8.4883 0.36328zm-252.29-400.45c-6.1719 0-12.031 2.4609-16.496 6.9258-22.09 22.223-31.828 35.926-34.922 63.223-7.7891 64.508 22.371 124.12 104.09 205.84 96.93 96.934 177.3 104.46 199.62 104.47h0.003906c3.6836 0 5.8164-0.19531 6.3125-0.24609 28.27-3.375 41.605-13.746 63.281-34.949 8.8359-8.9062 9.1953-22.996 0.78906-31.43l-62.008-62.008c-3.9023-3.8906-9.2031-6.0391-14.914-6.0391-6.1758 0-12.031 2.4531-16.488 6.9102l-17.855 17.828c-6.6016 6.5898-15.375 10.223-24.711 10.223-6.1602 0-12.234-1.6367-17.566-4.7383-19.734-11.48-43.074-26.379-66.547-49.852-21.484-21.52-34.93-41.406-49.664-66.516-8.0664-13.746-5.832-31.203 5.4336-42.449l17.738-17.715c8.8633-8.8672 9.2305-22.961 0.8125-31.41l-62.008-62.008c-3.9023-3.9102-9.1953-6.0586-14.902-6.0586z"/>
  <path d="m410.02 160h-140c-5.5234 0-10-4.4766-10-10s4.4766-10 10-10h140c5.5234 0 10 4.4766 10 10s-4.4766 10-10 10z"/>
  <path d="m380.02 190c-3.0391 0-6.043-1.3828-8.0078-4-3.3125-4.418-2.418-10.688 2-14l29.332-22-29.332-22c-4.418-3.3125-5.3125-9.582-2-14s9.582-5.3125 14-2l40 30c2.5195 1.8906 4 4.8516 4 8s-1.4805 6.1094-4 8l-40 30c-1.7969 1.3477-3.9062 2-5.9922 2z"/>
  <path d="m420.02 230h-140c-5.5234 0-10-4.4766-10-10s4.4766-10 10-10h140c5.5234 0 10 4.4766 10 10s-4.4766 10-10 10z"/>
  <path d="m310.01 260c-2.0898 0-4.1914-0.65234-5.9922-2l-40-30c-2.5195-1.8906-4-4.8516-4-8s1.4805-6.1094 4-8l40-30c4.418-3.3125 10.688-2.418 14 2s2.418 10.688-2 14l-29.332 22 29.332 22c4.418 3.3125 5.3125 9.582 2 14-1.9648 2.6172-4.9688 4-8.0078 4z"/>
 </g>
</svg>
