<?xml version="1.0" encoding="UTF-8"?>
<svg width="512pt" height="512pt" version="1.1" viewBox="0 0 512 512" xmlns="http://www.w3.org/2000/svg">
 <path transform="scale(10.667)" d="m18.1 35.1h-17.1v-30h46v30" fill="none" stroke="#000" stroke-linecap="round" stroke-linejoin="round" stroke-miterlimit="10" stroke-width="2"/>
 <path transform="scale(10.667)" d="m1.0001 5.0999 23 17.7 23-17.7" fill="none" stroke="#000" stroke-linecap="round" stroke-linejoin="round" stroke-miterlimit="10" stroke-width="2"/>
 <path d="m400 445.87c-17.066 9.6016-35.199 12.801-55.465 12.801-51.199 0-94.934-37.332-94.934-98.133 0-65.066 44.801-120.54 114.13-120.54 54.398 0 90.668 38.398 90.668 90.668 0 46.934-26.668 74.668-55.465 74.668-12.801 0-24.535-8.5352-23.465-27.734h-1.0664c-10.668 18.133-25.602 27.734-43.734 27.734s-34.133-14.934-34.133-39.465c0-38.398 30.934-74.668 74.668-74.668 13.867 0 25.602 3.1992 33.066 6.3984l-10.668 56.535c-4.2656 23.465-1.0664 35.199 9.6016 35.199 16 0 34.133-21.332 34.133-57.602 0-45.867-27.734-77.867-75.734-77.867-51.199 0-93.867 40.535-93.867 104.54 0 52.266 34.133 84.266 80 84.266 18.133 0 34.133-4.2656 46.934-10.668zm-18.133-135.47c-3.1992-1.0664-8.5352-2.1328-16-2.1328-27.734 0-50.133 25.602-50.133 56.535 0 13.867 6.3984 23.465 20.266 23.465 18.133 0 35.199-23.465 38.398-42.668z"/>
</svg>
