<?xml version="1.0" encoding="UTF-8"?>
<svg width="512pt" height="512pt" version="1.1" viewBox="0 0 512 512" xmlns="http://www.w3.org/2000/svg">
 <g>
  <path d="m256 0c-33.617 0-66.906 6.6211-97.965 19.488-31.062 12.863-59.281 31.719-83.055 55.492-23.773 23.773-42.629 51.992-55.492 83.055-12.867 31.059-19.488 64.348-19.488 97.965 0 67.895 26.973 133.01 74.98 181.02 48.012 48.008 113.12 74.98 181.02 74.98s133.01-26.973 181.02-74.98c48.008-48.008 74.98-113.12 74.98-181.02s-26.973-133.01-74.98-181.02c-48.008-48.008-113.12-74.98-181.02-74.98zm0 28.91c29.492 0 58.695 5.875 85.941 17.289 27.246 11.41 52.004 28.137 72.855 49.227 20.855 21.086 37.395 46.121 48.684 73.672 11.285 27.551 17.094 57.082 17.094 86.902 0 60.227-23.66 117.99-65.777 160.57-42.113 42.59-99.234 66.512-158.8 66.516-29.488 0-58.691-5.875-85.941-17.289-27.246-11.41-52-28.137-72.855-49.227-20.852-21.086-37.395-46.121-48.68-73.672-11.289-27.551-17.098-57.078-17.098-86.902 0-29.82 5.8086-59.352 17.094-86.902 11.289-27.551 27.828-52.586 48.684-73.672 20.852-21.09 45.609-37.816 72.855-49.23 27.25-11.41 56.453-17.285 85.941-17.285z" fill="#de0a11"/>
  <path d="m401.74 275.99-15.801-90.605c-0.96875-4.8359-4.5156-9.0273-9.3516-10.316-3.5469-0.96875-7.7383-0.32422-10.641 1.9336-3.2227 2.2578-5.1602 5.8047-5.4805 9.6719l-3.8711 53.523c2.5781 0.96875 5.1602 2.5781 7.0938 4.5156 7.0938 7.0938 8.0625 18.703 1.6133 26.441l-25.797 33.211c-1.9336 2.2578-5.4805 2.9023-7.7383 0.96875-2.5781-1.9336-2.9023-5.4805-0.96875-7.7383l26.117-33.211c2.9023-3.5469 2.5781-8.707-0.64453-11.93-1.6133-1.6133-3.8711-2.5781-6.125-2.5781-1.9336 0-3.8711 0.64453-5.1602 1.6133l-38.047 28.051c-7.7383 5.4805-12.574 14.188-13.863 23.215l-6.7695 53.523h71.582l34.5-41.594c8.0625-10.32 11.609-24.832 9.3516-38.695z"/>
  <path d="m356.92 367.56h-72.871c-4.5156 0-8.3828 3.8711-8.3828 8.3828v24.828c0 4.5156 3.8711 8.3828 8.3828 8.3828h73.195c4.5156 0 8.3828-3.8711 8.3828-8.3828v-24.828c-0.32031-4.5117-3.8672-8.3828-8.707-8.3828z"/>
  <path d="m226.66 356.6-6.7695-53.523c-1.2891-9.3516-6.4492-17.734-13.863-23.215l-38.047-28.051c-3.5469-2.5781-8.3828-2.2578-11.609 0.96875-3.2227 3.2227-3.5469 8.3828-0.64453 11.93l26.113 32.883c1.9336 2.2578 1.2891 5.8047-0.96875 7.7383-2.2578 1.9336-5.8047 1.2891-7.7383-0.96875l-25.797-33.211c-6.4492-8.0625-5.4805-19.348 1.6133-26.441 1.9336-1.9336 4.5156-3.5469 7.0938-4.5156l-3.8711-53.523c-0.32422-3.8711-2.2578-7.418-5.4805-9.6719-3.2227-2.2578-7.0938-2.9023-10.641-1.9336-4.8359 1.2891-8.3828 5.1602-9.3516 10.316l-16.441 90.609c-2.2578 13.863 1.2891 28.375 10.641 39.016l34.5 41.594z"/>
  <path d="m227.95 367.56h-72.871c-4.5156 0-8.3828 3.8711-8.3828 8.3828v24.828c0 4.5156 3.8711 8.3828 8.3828 8.3828h73.195c4.5156 0 8.3828-3.8711 8.3828-8.3828v-24.828c-0.32422-4.5117-4.1953-8.3828-8.707-8.3828z"/>
  <path d="m256 146.05c-24.504 0-44.496 19.992-44.496 44.496s19.992 44.816 44.496 44.816 44.496-19.992 44.496-44.496c0-24.504-19.992-44.816-44.496-44.816zm2.9023 34.82c1.9336 0 3.5469 1.6133 3.5469 3.5469 0 1.9336-1.6133 3.5469-3.5469 3.5469h-14.832c0 0.96875-0.32422 1.9336-0.32422 2.9023s0 1.9336 0.32422 2.9023h14.832c1.9336 0 3.5469 1.6133 3.5469 3.5469s-1.6133 3.5469-3.5469 3.5469h-12.898c2.5781 5.1602 7.418 8.707 12.898 8.707 3.5469 0 6.7695-1.2891 9.3516-3.8711 1.6133-1.6133 4.5156-1.6133 6.125 0 1.6133 1.6133 1.6133 4.5156 0 6.125-4.1914 4.1914-9.6719 6.4492-15.156 6.4492-9.9961 0-18.703-7.0938-22.25-17.41h-5.1602c-1.9336 0-3.5469-1.6133-3.5469-3.5469s1.6133-3.5469 3.5469-3.5469h3.5469c0-0.96875-0.32422-1.9336-0.32422-2.9023s0.32422-1.9336 0.32422-2.9023h-3.5469c-1.9336 0-3.5469-1.6133-3.5469-3.5469 0-1.9336 1.6133-3.5469 3.5469-3.5469h5.1602c3.5469-9.9961 11.93-17.41 22.25-17.41 5.8047 0 10.965 2.2578 15.477 6.4492 1.6133 1.6133 1.9336 4.1914 0 6.125-1.6133 1.6133-4.1914 1.9336-6.125 0-2.5781-2.5781-6.125-3.8711-9.3516-3.8711-5.4805 0-10.316 3.5469-12.898 8.707z"/>
  <path d="m277.93 259.23 17.41 7.418c3.2227 1.2891 6.7695-0.64453 7.418-4.1914l2.2578-18.703c0.32422-2.2578 2.2578-4.1914 4.5156-4.5156l18.703-2.2578c3.5469-0.32422 5.4805-4.1914 4.1914-7.418l-7.418-17.41c-0.96875-2.2578-0.32422-4.8359 1.6133-6.125l15.156-11.285c2.9023-1.9336 2.9023-6.4492 0-8.3828l-15.156-11.285c-1.9336-1.2891-2.5781-4.1914-1.6133-6.125l7.418-17.41c1.2891-3.2227-0.64453-6.7695-4.1914-7.418l-18.703-2.2578c-2.2578-0.32422-4.1914-2.2578-4.5156-4.5156l-2.2578-18.703c-0.32422-3.5469-4.1914-5.4805-7.418-4.1914l-17.41 7.418c-2.2578 0.96875-4.8359 0.32422-6.125-1.6133l-11.285-15.156c-1.9336-2.9023-6.4492-2.9023-8.3828 0l-11.285 15.156c-1.2891 1.9336-4.1914 2.5781-6.125 1.6133l-17.41-7.418c-3.2227-1.2891-6.7695 0.64453-7.418 4.1914l-2.2578 18.703c-0.32422 2.2578-2.2578 4.1914-4.5156 4.5156l-18.703 2.2578c-3.5469 0.32422-5.4805 4.1914-4.1914 7.418l7.418 17.41c0.96875 2.2578 0.32422 4.8359-1.6133 6.125l-15.156 11.285c-2.9023 1.9336-2.9023 6.4492 0 8.3828l15.156 11.285c1.9336 1.2891 2.5781 4.1914 1.6133 6.125l-7.418 17.41c-1.2891 3.2227 0.64453 6.7695 4.1914 7.418l18.703 2.2578c2.2578 0.32422 4.1914 2.2578 4.5156 4.5156l2.2578 18.703c0.32422 3.5469 4.1914 5.4805 7.418 4.1914l17.41-7.418c2.2578-0.96875 4.8359-0.32422 6.125 1.6133l11.285 15.156c1.9336 2.9023 6.4492 2.9023 8.3828 0l11.285-15.156c1.2891-1.6133 3.8672-2.582 6.125-1.6133zm-21.926-13.867c-30.309 0-54.816-24.504-54.816-54.816 0-30.309 24.504-54.816 54.816-54.816 30.309 0 54.816 24.504 54.816 54.816s-24.508 54.816-54.816 54.816z"/>
 </g>
</svg>
