<?xml version="1.0" encoding="UTF-8"?>
<svg width="512pt" height="512pt" version="1.1" viewBox="0 0 512 512" xmlns="http://www.w3.org/2000/svg">
 <path d="m202.8 261.48-94.977-164.5 10.395-5.9922 94.719 164.04 35.277-61.082-70.504-122.16 10.445-5.9922 67.02 116.12 68.66-118.94 10.445 6.043-104.96 181.86c7.7812-1.9453 15.922-2.918 24.32-2.918 15.156 0 29.594 3.3281 42.547 9.2656l97.586-169.01 10.395 5.9922-97.383 168.7c6.9102 4.1992 13.312 9.2148 18.996 14.898 18.484 18.484 29.902 43.98 29.902 72.191 0 19.355-5.4258 37.426-14.746 52.84 5.6836 4.8125 13.16 7.8867 22.273 9.3203 3.2773 0.51172 5.5312 3.5859 5.0195 6.8594-0.41016 2.7656-2.6094 4.7617-5.2227 5.1211-10.648 1.8438-18.84 5.7852-24.68 11.727-5.8359 5.8867-9.5234 14.027-11.109 24.168-0.46094 3.3281-3.5859 5.582-6.8594 5.0703-2.7656-0.41016-4.7617-2.6094-5.0703-5.2227-1.6367-9.2148-4.8125-16.59-9.4727-22.223-15.258 9.1641-33.125 14.387-52.172 14.387-28.16 0-53.707-11.418-72.141-29.902l-0.15234-0.10156c-18.379-18.484-29.746-43.93-29.746-72.039 0-28.211 11.418-53.707 29.848-72.191 6.3477-6.2969 13.516-11.828 21.352-16.332zm130 131.33c6.8594-12.75 10.805-27.34 10.805-42.805 0-24.832-10.086-47.359-26.367-63.59-16.281-16.281-38.758-26.367-63.59-26.367-24.883 0-47.359 10.086-63.641 26.367-16.23 16.23-26.316 38.758-26.316 63.59s10.035 47.359 26.316 63.59c16.281 16.281 38.758 26.367 63.641 26.367 15.258 0 29.645-3.7891 42.188-10.496-4.6602-2.6094-10.188-4.4023-16.488-5.375-3.2773-0.46094-5.5312-3.5859-5.0703-6.8594 0.41016-2.7148 2.5586-4.7109 5.1211-5.0703 10.754-1.8945 18.996-5.8359 24.832-11.777 5.8359-5.9375 9.5234-14.027 11.059-24.168 0.51172-3.2773 3.5859-5.582 6.8594-5.0703 2.7148 0.41016 4.7109 2.5078 5.0703 5.1211 1.125 6.3477 2.9688 11.879 5.582 16.539zm-2.2539 16.844c-3.6875-3.5859-6.7578-7.832-9.2148-12.645-2.2539 4.4023-5.0703 8.3984-8.5 11.828-3.6367 3.6875-7.832 6.7578-12.699 9.2148 4.4531 2.2539 8.3984 5.1211 11.879 8.5 3.6367 3.6367 6.707 7.8867 9.1641 12.699 2.3047-4.4023 5.1211-8.3984 8.5508-11.828 3.5859-3.6875 7.832-6.7578 12.645-9.2148-4.4023-2.2539-8.3438-5.1211-11.828-8.5508zm-70.859-105.16v90.98h-12.082v-90.98z" fill="#ffd600"/>
</svg>
