<?xml version="1.0" encoding="UTF-8"?>
<svg width="512pt" height="512pt" version="1.1" viewBox="0 0 512 512" xmlns="http://www.w3.org/2000/svg">
 <g>
  <path d="m256 0c-33.617 0-66.906 6.6211-97.965 19.488-31.062 12.863-59.281 31.719-83.055 55.492-23.773 23.773-42.629 51.992-55.492 83.055-12.867 31.059-19.488 64.348-19.488 97.965 0 67.895 26.973 133.01 74.98 181.02 48.012 48.008 113.12 74.98 181.02 74.98s133.01-26.973 181.02-74.98c48.008-48.008 74.98-113.12 74.98-181.02s-26.973-133.01-74.98-181.02c-48.008-48.008-113.12-74.98-181.02-74.98zm0 28.91c29.492 0 58.695 5.875 85.941 17.289 27.246 11.41 52.004 28.137 72.855 49.227 20.855 21.086 37.395 46.121 48.684 73.672 11.285 27.551 17.094 57.082 17.094 86.902 0 60.227-23.66 117.99-65.777 160.57-42.113 42.59-99.234 66.512-158.8 66.516-29.488 0-58.691-5.875-85.941-17.289-27.246-11.41-52-28.137-72.855-49.227-20.852-21.086-37.395-46.121-48.68-73.672-11.289-27.551-17.098-57.078-17.098-86.902 0-29.82 5.8086-59.352 17.094-86.902 11.289-27.551 27.828-52.586 48.684-73.672 20.852-21.09 45.609-37.816 72.855-49.23 27.25-11.41 56.453-17.285 85.941-17.285z" fill="#de0a11"/>
  <path d="m210.54 224.4c0.64453-0.32422 11.93-10.641 12.254-22.895 0.32422-12.254-10.641-21.281-10.965-21.926-1.2891-0.96875-2.9023-0.96875-4.1914 0-0.32422 0.32422-6.125 5.4805-9.6719 12.898-0.96875-1.9336-2.2578-3.5469-3.5469-5.1602-8.707-8.707-24.184-7.0938-24.828-7.0938-1.6133 0.32422-2.5781 1.2891-2.9023 2.9023 0 0.64453-1.9336 16.121 6.4492 24.828 1.6133 1.6133 3.5469 2.9023 5.8047 3.8711-7.418 3.5469-12.574 9.6719-12.898 9.9961-0.96875 1.2891-0.96875 2.9023 0 4.1914 0.32422 0.32422 9.0273 10.316 20.957 10.316h1.2891c11.289-0.32422 20.316-9.9961 22.25-11.93zm-0.96484-37.402c2.5781 2.9023 6.7695 8.3828 6.4492 14.508-0.32422 6.7695-5.1602 12.898-8.0625 16.121-2.5781-2.9023-6.7695-8.0625-6.4492-14.508 0.64453-6.7734 5.4805-13.219 8.0625-16.121zm-36.758 0c4.1914 0 11.93 0.64453 16.766 5.1602 4.5156 4.8359 5.1602 12.898 4.8359 16.766-4.5156 0-12.254-0.96875-16.766-5.1602-4.5156-4.8359-4.8359-12.574-4.8359-16.766zm15.152 43.527c-6.4492 0.32422-11.93-3.5469-14.832-6.125 2.9023-2.9023 9.0273-8.0625 15.801-8.3828 6.4492-0.32422 11.93 3.5469 14.832 6.125-3.2266 2.9023-9.3516 7.7383-15.801 8.3828z"/>
  <path d="m202.48 247.29c-3.5469 0-7.0938 1.2891-9.6719 3.8711-5.4805 5.1602-5.4805 13.863 0 19.348 2.5781 2.5781 6.125 4.1914 9.6719 4.1914 3.5469 0 6.7695-1.2891 9.6719-3.8711 2.5781-2.5781 4.1914-6.125 4.1914-9.6719s-1.2891-7.0938-3.8711-9.6719c-2.8984-2.9023-6.4453-4.1953-9.9922-4.1953zm4.8359 18.703c-2.9023 2.9023-7.418 2.9023-10.316 0-2.9023-2.9023-2.9023-7.418 0-10.316 1.2891-1.2891 3.2227-2.2578 5.1602-1.9336 1.9336 0 3.8711 0.64453 5.1602 2.2578 1.2891 1.2891 1.9336 3.2227 1.9336 5.1602-0.003906 1.9297-0.64844 3.2188-1.9375 4.832z"/>
  <path d="m210.86 238.59c0 3.5469 1.2891 7.0938 3.8711 9.6719 2.5781 2.5781 6.125 4.1914 9.6719 4.1914s6.7695-1.2891 9.6719-3.8711c2.5781-2.5781 4.1914-6.125 4.1914-9.6719s-1.2891-7.0938-3.8711-9.6719c-2.5781-2.5781-6.125-4.1914-9.6719-4.1914s-7.0938 1.2891-9.6719 3.8711c-2.9023 2.5781-4.1914 6.125-4.1914 9.6719zm8.3828-5.1602c1.2891-1.2891 3.2227-1.9336 5.1602-1.9336 1.9336 0 3.8711 0.64453 5.1602 2.2578 1.2891 1.2891 1.9336 3.2227 1.9336 5.1602 0 1.9336-0.64453 3.8711-2.2578 5.1602-2.9023 2.9023-7.418 2.9023-10.316 0-1.2891-1.2891-1.9336-3.2227-1.9336-5.1602 0.32031-2.2617 0.96484-3.8711 2.2539-5.4844z"/>
  <path d="m246.33 230.21c3.5469 0 7.0938-1.2891 9.6719-3.8711 5.4805-5.1602 5.4805-13.863 0-19.348-2.5781-2.5781-6.125-4.1914-9.6719-4.1914s-7.0938 1.2891-9.6719 3.8711c-2.5781 2.5781-4.1914 6.125-4.1914 9.6719s1.2891 7.0938 3.8711 9.6719c2.8984 2.9023 6.4453 4.1953 9.9922 4.1953zm-4.8359-18.703c1.2891-1.2891 3.2227-1.9336 5.1602-1.9336 1.9336 0 3.8711 0.64453 5.1602 2.2578 2.9023 2.9023 2.9023 7.418 0 10.316-1.2891 1.2891-3.2227 1.9336-5.1602 1.9336-1.9336 0-3.8711-0.64453-5.1602-2.2578-1.2891-1.2891-1.9336-3.2227-1.9336-5.1602-0.32422-1.9336 0.64062-3.8672 1.9336-5.1562z"/>
  <path d="m235.04 257.61c-3.5469 0-7.0938 1.2891-9.6719 3.8711-2.5781 2.5781-4.1914 6.125-4.1914 9.6719s1.2891 7.0938 3.8711 9.6719c2.5781 2.5781 6.125 4.1914 9.6719 4.1914s7.0938-1.2891 9.6719-3.8711c5.4805-5.1602 5.4805-13.863 0-19.348-2.582-2.8984-5.8047-4.1875-9.3516-4.1875zm4.8359 18.699c-1.2891 1.2891-3.2227 2.2578-5.1602 1.9336-1.9336 0-3.8711-0.64453-5.1602-2.2578-1.2891-1.2891-1.9336-3.2227-1.9336-5.1602 0-1.9336 0.64453-3.8711 2.2578-5.1602 1.2891-1.2891 3.2227-1.9336 5.1602-1.9336 1.9336 0 3.8711 0.64453 5.1602 2.2578 2.5781 2.9062 2.5781 7.418-0.32422 10.32z"/>
  <path d="m247.29 239.23c-2.5781 2.5781-4.1914 6.125-4.1914 9.6719s1.2891 7.0938 3.8711 9.6719c2.5781 2.5781 6.125 4.1914 9.6719 4.1914s7.0938-1.2891 9.6719-3.8711c2.5781-2.5781 3.8711-6.125 4.1914-9.6719 0-3.5469-1.2891-7.0938-3.8711-9.6719-5.1562-5.4805-13.859-5.4805-19.344-0.32031zm16.77 9.9961c0 1.9336-0.64453 3.8711-2.2578 5.1602-1.6133 1.2891-3.2227 1.9336-5.1602 1.9336-1.9336 0-3.8711-0.64453-5.1602-2.2578-1.2891-1.2891-1.9336-3.2227-1.9336-5.1602 0-1.9336 0.64453-3.8711 2.2578-5.1602 1.2891-1.2891 3.2227-1.9336 5.1602-1.9336 1.9336 0 3.8711 0.64453 5.1602 2.2578 1.2891 1.2891 1.9336 3.2227 1.9336 5.1602z"/>
  <path d="m257.29 272.45c-5.4805 5.1602-5.4805 13.863 0 19.348 2.5781 2.5781 6.125 4.1914 9.6719 4.1914 3.5469 0 6.7695-1.2891 9.6719-3.8711 5.4805-5.1602 5.4805-13.863 0-19.348-5.4766-5.4805-14.184-5.8008-19.344-0.32031zm14.512 14.832c-2.9023 2.9023-7.418 2.9023-10.316 0-2.9023-2.9023-2.9023-7.418 0-10.316 2.9023-2.9023 7.418-2.9023 10.316 0 2.9023 2.8984 2.9023 7.4141 0 10.316z"/>
  <path d="m329.52 194.09h-9.6719v-41.273c0-1.9336-1.2891-3.2227-3.2227-3.2227h-186.37c-1.9336 0-3.2227 1.2891-3.2227 3.2227v172.5c0 1.9336 1.2891 3.2227 3.2227 3.2227h14.508c1.6133 17.09 15.801 30.309 33.211 30.309s31.598-13.219 33.211-30.309h93.828c1.6133 17.09 15.801 30.309 33.211 30.309s31.598-13.219 33.211-30.309h16.445c1.9336 0 3.2227-1.2891 3.2227-3.2227l0.003906-69.969c0-33.855-27.406-61.262-61.586-61.262zm-151.22 158.32c-14.832 0-26.762-11.93-26.762-26.762 0-14.832 11.93-26.762 26.762-26.762s26.762 11.93 26.762 26.762c0 14.832-11.93 26.762-26.762 26.762zm159.93 0c-14.832 0-26.762-11.93-26.762-26.762 0-14.832 11.93-26.762 26.762-26.762 14.832 0 26.762 11.93 26.762 26.762 0 14.832-11.93 26.762-26.762 26.762zm46.43-30.309h-13.219c-1.6133-16.766-15.801-29.988-33.211-29.988s-31.277 13.219-33.211 29.988h-93.508c-1.6133-16.766-15.801-29.988-33.211-29.988-17.41 0-31.277 13.219-33.211 29.988h-11.609v-166.06h179.92v40.949c0 1.9336 1.2891 3.2227 3.2227 3.2227h12.898c30.309 0 55.137 24.828 55.137 55.137z"/>
  <path d="m325.65 212.79h-9.0273c-1.9336 0-3.2227 1.2891-3.2227 3.2227v54.816c0 1.9336 1.2891 3.2227 3.2227 3.2227h49.656c1.9336 0 3.2227-1.2891 3.2227-3.2227v-14.188c0-24.184-19.672-43.852-43.852-43.852zm37.402 54.816h-43.207v-48.367h5.8047c20.637 0 37.402 16.766 37.402 37.402z"/>
 </g>
</svg>
