<?xml version="1.0" encoding="UTF-8"?>
<svg width="512pt" height="512pt" version="1.1" viewBox="0 0 512 512" xmlns="http://www.w3.org/2000/svg">
 <path d="m202.8 261.48-94.977-164.5 10.395-5.9922 94.719 164.04 35.277-61.082-70.504-122.16 10.445-5.9922 67.02 116.12 68.66-118.94 10.445 6.043-104.96 181.86c7.7812-1.9453 15.922-2.918 24.32-2.918 15.156 0 29.594 3.3281 42.547 9.2656l97.586-169.01 10.395 5.9922-97.383 168.7c6.9102 4.1992 13.312 9.2148 18.996 14.898 18.484 18.484 29.902 43.98 29.902 72.191 0 28.16-11.418 53.656-29.902 72.141l-0.10156 0.10156c-18.484 18.434-43.93 29.797-72.039 29.797-28.16 0-53.707-11.418-72.141-29.902l-0.15234-0.10156c-18.379-18.484-29.746-43.93-29.746-72.039 0-28.211 11.418-53.707 29.848-72.191 6.3477-6.2969 13.516-11.828 21.352-16.332zm73.164 43.008v90.98h-12.082v-90.98zm-32.562 0v90.98h-12.082v-90.98zm73.832-18.074c-16.281-16.281-38.758-26.367-63.59-26.367-24.883 0-47.359 10.086-63.641 26.367-16.23 16.23-26.316 38.758-26.316 63.59s10.035 47.359 26.316 63.59c16.281 16.281 38.758 26.367 63.641 26.367 24.832 0 47.359-10.086 63.59-26.367 16.281-16.23 26.367-38.758 26.367-63.59s-10.086-47.359-26.367-63.59z" fill="#c0c0c0"/>
</svg>
