<?xml version="1.0" encoding="UTF-8"?>
<svg width="512pt" height="512pt" version="1.1" viewBox="0 0 512 512" xmlns="http://www.w3.org/2000/svg">
 <path d="m255.84 40.961c-56.164 0-102.24 43.902-102.24 101.12 0 13.852 3.3711 31.617 8 43.84 28.246 58.906 56.738 117.89 85.121 176.8 1.6367 3.5078 5.4102 5.9219 9.2812 5.9219s7.6445-2.4102 9.2812-5.9219c28.043-59.066 57.316-117.69 85.121-176.8 4.6641-12.254 8-29.996 8-43.84 0-57.246-46.395-101.12-102.56-101.12zm0 20.48c45.645 0 82.078 34.297 82.078 80.641 0 9.8711-3.4453 27.406-6.7188 36.16-24.824 52.195-50.098 104.36-75.199 156.48-24.211-52.523-51.555-103.78-75.199-156.48-3.2656-8.7734-6.7188-26.309-6.7188-36.16 0-46.371 36.117-80.641 81.762-80.641zm0.16016 20.48c-33.812 0-61.441 27.629-61.441 61.441 0 33.809 27.629 61.441 61.441 61.441s61.441-27.629 61.441-61.441-27.629-61.441-61.441-61.441zm0 20.48c22.742 0 40.961 18.219 40.961 40.961 0 22.742-18.219 40.961-40.961 40.961s-40.961-18.219-40.961-40.961c0-22.742 18.219-40.961 40.961-40.961zm-184.32 143.36c-5.7852 0-8.2734 3.1797-10.078 8.6406l-30.719 204.8c-0.91797 5.8125 4.1953 11.82 10.078 11.84h430.08c5.8867 0 11-6.0273 10.078-11.84l-30.719-204.8c-0.75391-4.7539-5.2656-8.625-10.078-8.6406h-95.68c-3.3125 6.8594-6.7578 13.629-10.078 20.48h96.961l6.0781 40.961h-122.88c-4.5352 9.3359-9.0977 18.668-13.602 28l92.32 115.36h-152.96l-63.68-79.68 36.32-30.719c-3.0312-6.2969-6.0859-12.582-9.1211-18.879l-40 33.758-71.039-88.801h84.641c-3.2891-6.8398-6.6328-13.641-9.9219-20.48zm6.5586 34.879 136 169.92h-161.44zm243.04 47.039h119.52l7.6797 51.199h-86.238zm57.441 71.68h72.801l7.6797 51.199h-39.52z"/>
</svg>
