<?xml version="1.0" encoding="UTF-8"?>
<svg width="512pt" height="512pt" version="1.1" viewBox="0 0 512 512" xmlns="http://www.w3.org/2000/svg">
 <g fill="#de0a11" fill-rule="evenodd">
  <path d="m496.37 15.195c22.379 106.93-13.762 251.46 0 360.16 0.38672 9.7695-10.426 8.293-15.324 12.773-4.1406 36.734-3.418 78.34-20.445 102.18-9.75 2.0859-9.8828-5.4453-12.777-10.223-7.4883 2.7148-5.0508 15.379-12.754 17.887-17.328 0.29688-18.77-15.305-22.988-28.102-12.867 4.1797-5.1836 28.867-17.898 33.211-41.734-10.723-14.414-74.945-30.656-109.84-5.1758 34.086 9.3203 96.027-20.422 112.39-21.574-12.492-9.582-58.562-17.898-84.285-10.535 21.141 4.0273 73.125-22.988 84.285-15.195-24.992-24.422-66.895-12.754-91.957 12.059 23.773 1.2617 56.094 15.324 79.18 13.277-6.2969 6.6172-32.547 10.211-48.52-25.867-15.848-14.895-68.559-20.445-104.74-10.621 21.445 9.4727 76.176-22.988 81.75-1.8711 28.645 7.6406 86.625-25.539 81.73-24.305-17.055 7.457-90.824-17.879-114.95-8.1055 25.305 2.2773 67.992-7.6641 94.508-20.578-1.8477-14.562 22.902-30.652 25.539-9.6328-0.58984-13.785-6.6484-12.777-17.875-8.7266 1.0469-3.2422 6.8906-12.773 2.543-2.2695-6.2461-5.957-11.078-5.1016-20.43-12.531 7.0391-10.27 28.898-28.098 30.652-5.2461-10.941-6.582-25.777-10.219-38.316-10.148 10.293-3.5039 37.371-22.988 38.316-11.914-5.125-12.391-21.676-12.773-38.316-17.031 5.957-10.973 34.992-25.543 43.422-13.098-3.0938-15.754-16.613-15.324-33.199-5.7461-5.1133-14.363 2.8086-20.434-5.1133-2.9141-29.445 8.75-73.449-12.773-84.293-3.9219-118.32-6.4258-257.8 10.223-362.71 30.242-13.277 66.043-6.7812 102.17-7.6641 65.297-1.6094 134.82-10.219 201.79-10.219 59.957-0.003907 121.64-6.2188 171.16 10.215zm-163.49 22.988c-1.7695 34.832-3.5273 69.688-2.5469 107.28 53.84 26.977 61.156 159.31-2.543 181.36-0.67578 11.266-4.0977 19.758-2.5703 33.211 41.84-7.3633 85.078 4.5273 137.94-5.1133-10.098-94.906 8.625-209.56 2.5664-316.73-38.562-1.7578-88.043-6.1484-132.84 0zm-288.64 10.211c1.8359 28.957 3.7773 53.762-2.5586 79.188 51.031 3.8633 94.988-0.074219 153.27 2.5586 29.559-16.676 66.367-24.305 94.52-7.6641 4.2227-24.086 10.035-59.477 7.6641-81.75-85.188-0.625-176.64 4.3633-252.89 7.668zm178.8 206.91c5.8672-22.355 19.207-74.809 2.5469-94.504-0.9375 29.367-14.949 68.262-2.5469 94.504zm17.875-94.504c-3.9297 74.062-12.34 141.62-2.5547 219.67 20.906-70.945-2.8281-138.61 10.219-214.56 8.8672 30.129-0.54688 85.754 10.219 114.95 14.547-28.027 4.8867-80.258 7.6641-120.05-8.5117-0.007813-17.031-0.007813-25.547-0.007813zm-199.24 201.79c47.617 4.1406 89.543 1.543 125.17 7.668-0.074219 32.172 2.9766 61.695 2.5547 104.73 13.203-2.9805 7.9258-24.441 12.773-35.766-15.707-32.199-0.28516-76.566 0-120.06-46.426-22.391-63.031-103.79-33.211-153.26-34.02-6.5664-71.766 4.2109-107.28-2.5586-8.6289 58.504-4.3555 132.93-0.003907 199.24zm245.22-117.49c8.9883-18.09 14.195-51.336 7.6641-76.629-5.5078-2.1445-8.7031-6.6211-17.875-5.1133 6.4883 24.152-1.9844 63.277 10.211 81.742zm-89.395 43.418c-3.4648-42.094 14.871-88.57 5.1016-120.05-20.023 24.402-22.258 95.812-5.1016 120.05zm89.395 25.551c12.668-1.543 15.742-20.902 17.898-33.211 5.7461-33.07 5.5703-72.082 2.543-104.73-3.2656-0.15234-3.5273-3.2891-7.6641-2.5586 13.281 57.289-21.422 86.477-12.777 140.5zm38.312-33.215c24.797-13.43 15.156-65.305 0-81.738-4.7695 26.672-5.0547 55.418 0 81.738zm-148.14-28.098c1.4844-4.6133 6.707-44.977 0-48.539-4.7969 11-15.566 40.445 0 48.539zm28.098 35.762c10 0.55859 4.9844-38.012 2.5547-33.211 0.60156 12.516-4.5039 19.34-2.5547 33.211zm56.191 0c19.746 27.348-4.8125 92.812 17.875 120.05 11.82-45.762-1.3477-104.17-7.6641-148.14 0.30859 13.059-7.5352 17.992-10.211 28.094zm-43.422 58.742c2.8633-21.617 13.211-60.832 2.5586-79.18-1.7383 23.941-5.2852 58.285-2.5586 79.18zm86.859-38.309c13.672 2.5078 24.207-11.434 22.988-15.324-8.5781 9.2383-11.754-8.5234-17.898-10.211 1.0703 11.262-0.67188 19.727-5.0898 25.535zm-58.758 76.625c0.023438 10.656 5.582 21.77 5.1094 33.211-1.0078 24.199-17.984 54.637 2.5547 76.637 25.059-50.609 2.2695-150.05 0-204.35 6.4297 37.488-7.7148 70.043-7.6641 94.504zm-58.754 33.211c19.699-25.465 13.84-81.219 20.434-112.39-0.53906-2.8711-2.8398-3.9805-5.1094-5.1133-18.691 23.996-18.332 80.289-15.324 117.5zm125.17 7.6641c11.914-27.266 4.6211-73.711 10.211-107.28-7.5312 3.4648-15.805 3.1953-20.445-2.5547 3.6211 35.742-4.4805 80.266 10.234 109.84zm-94.52-56.195c-7.5391 28.996-11.84 69.535-2.5547 99.617 6.1836-30.438-1.3086-74.543 10.211-99.617h-7.6562zm229.89 17.887c8.2031 27.766-11.605 74.734 12.777 94.508 4.6211-29.059 23.559-66.594 10.211-97.07-7.9922 0.51953-18.742-1.7148-22.988 2.5625zm-38.32 5.1016c10.449 15.945-1.543 54.355 12.781 66.418 9.375-18.223 20.008-44.73 12.777-71.52-8.9219 1.2891-19.281 1.1367-25.559 5.1016zm-30.645 79.191c20.18-10.66 22.598-52.086 17.898-79.188-38.23-14.574-15.004 53.273-17.898 79.188zm-51.074-53.648c1.4102-5.3125 3.9805-5.4102 7.6641-2.5547 5.25 22.812-7.5781 65.633 12.754 79.188 10.062-29.633 12.781-71.289 2.5703-102.18h-25.559c1.6094 7.7773-3.2617 22.008 2.5703 25.547zm-288.66 45.977c4.4766-12.656 18.59-39.52 10.219-63.863h-12.766c-1.8164 19.602-10.668 51.34 2.5469 63.863zm35.766-61.301c6.8789 12.188-8.4922 40.516 2.5547 48.539 15.105-5.3359 7.4688-33.406 15.324-45.977-5.4766-2.0078-14.27-6.2109-17.879-2.5625zm45.98 0c-2.5156 20.48 0.69922 30.73 2.5547 45.984 10.656-10.637 14.863-27.715 17.879-45.984-10.168-1.8594-10.273-1.8594-20.434 0zm15.324 86.855c19.836-11.832 27.785-62.254 15.324-89.414h-5.1094c-1.1992 30.809-20.801 55.156-10.215 89.414zm-76.629 10.207c12.469-13.363 7.9883-26.176 5.1016-40.867-3.7773-19.293 6.6914-53.617-5.1016-56.199-1.2461 33.848-14.723 70.613 0 97.066zm43.422-5.1016c13.574-24.496 6.1172-54.816 7.6641-91.961-28.023 7.7578-19.27 73.137-7.6641 91.961zm89.402 2.5547c15.766-18.254 7.3086-58.836 7.6641-84.293-10.52 22.816-25.91 61.781-7.6641 84.293zm201.79-2.5547c4.4609-21.805 25.77-44.031 7.6641-66.41 8.4219 29.977-32.809 52.227-7.6641 66.41zm40.887-5.1055c0.023438-17.902 9.7969-39.531 2.543-56.199 1.8711 21.191-26.191 44.266-2.543 56.199z"/>
  <path d="m401.84 48.395c69.082-14.41 68.512 95.113 15.324 94.516-48.332-0.55078-73.121-82.43-15.324-94.516zm2.5664 43.434c4.6602 10.605 18.598 12.414 28.086 5.1016 5.8125-28.004-29.805-34.25-28.086-5.1016z"/>
 </g>
</svg>
