<?xml version="1.0" encoding="UTF-8"?>
<svg width="512pt" height="512pt" version="1.1" viewBox="0 0 512 512" xmlns="http://www.w3.org/2000/svg">
 <g>
  <path d="m407.12 74.625c0.63672 0.72656 1.5547 1.1406 2.5195 1.1406 0.97266 0 1.8828-0.41406 2.5273-1.1406l23.297-23.492c0.87891-1 1.0938-2.4102 0.55469-3.625-0.55469-1.2031-1.7617-1.9805-3.0859-1.9805h-8.3516l-0.003906-16.559c0.007812-1.8633-1.4922-3.3672-3.3555-3.3672h-23.156c-1.8633 0-3.3672 1.5039-3.3672 3.3672v16.559h-8.3438c-1.3242 0-2.5352 0.77734-3.0781 1.9805-0.54688 1.2148-0.32422 2.625 0.55469 3.625z"/>
  <path d="m295.3 234.92c-9.6289-10.738-19.145-22.734-27.711-33.527-4.0391-5.0977-7.9062-9.9648-11.52-14.383l-0.26562-0.32422c5.293-15.078 8.3203-27.418 8.9961-36.684 1.7148-23.609-0.92188-38.816-8.0547-46.48-4.8164-5.1875-12.051-6.9922-18.855-4.707-4.875 1.6328-11.473 6.0117-15.246 17.57-5.6211 17.234-2.8984 47.754 13.086 72.996-7.1328 18.68-17.074 40.141-28.059 60.574-20.914 7.332-37.586 16.973-49.551 28.668-15.633 15.258-21.984 30.402-17.438 41.543 2.8008 6.9023 9.2773 11.02 17.32 11.02 5.6016 0 11.66-2.0234 17.52-5.8438 14.801-9.6758 34.129-41.918 44.496-60.602 21.449-6.6953 42.625-9.4375 53.387-10.477 4.8672-0.47266 9.7031-0.84375 14.355-1.1055 18.836 19.891 34.242 30.383 48.434 33 2.8555 0.53125 5.7148 0.79688 8.5039 0.79688 11.566 0 21.125-4.6133 25.586-12.34 3.3633-5.8359 3.2969-12.645-0.1875-18.688-7.875-13.633-31.641-21.141-66.922-21.141-2.5391 0.015626-5.1602 0.050782-7.875 0.13281zm-129.6 75.426c-2.8008 1.8281-5.6797 2.918-7.707 2.918-0.38281 0-0.64453-0.039063-0.79297-0.078125-0.35156-1.7852 0.91797-9.5117 13.434-21.746 5.8789-5.7461 13.312-10.988 22.113-15.625-11.102 17.871-21.098 30.645-27.047 34.531zm73.969-188.39c1.3047-4 2.9219-5.8047 3.9336-6.1445 0.027343-0.003906 0.046875-0.015625 0.066406-0.019531 0.97266 1.0938 5.1094 7.3594 3.2578 32.926-0.32422 4.4609-1.4062 10.098-3.2344 16.793-5.9844-15.398-7.6289-32.508-4.0234-43.555zm32.004 114.49c-9.5352 0.91797-24.055 2.8047-40.254 6.6406 6.2812-12.543 12.098-25.258 16.957-37.039 1.6836 2.1094 3.4102 4.2734 5.1602 6.4922 5.8633 7.3867 12.445 15.691 19.273 23.805zm82.891 28.457c0.26562 0.46094 0.26172 0.64453 0.19531 0.76953-0.75391 1.3047-4.1562 3.3789-10.082 3.3789-1.6523 0-3.4141-0.16797-5.2344-0.50781-7.3945-1.3672-16.016-6.4766-26.293-15.59 27.887 1.332 39.156 8.0547 41.414 11.949z"/>
  <path d="m333.28 25.602h-231.84c-14.207 0-25.754 11.516-25.754 25.758v409.28c0 14.227 11.547 25.758 25.754 25.758h309.11c14.238 0 25.754-11.531 25.754-25.758v-332zm0 36.418 66.617 66.617h-66.617zm77.281 398.62h-309.12v-409.28h206.07v77.277c0 14.227 11.52 25.758 25.754 25.758h77.281v306.25z"/>
  <path d="m213.44 355.1c-2.1055-1.8594-4.6289-3.2109-7.4961-4.0039-2.832-0.80859-6.8867-1.2188-12.051-1.2188h-17.148c-3.2617 0-5.7188 0.74609-7.3125 2.2383-1.6094 1.5039-2.4336 3.9414-2.4336 7.2344v50.852c0 2.9609 0.73047 5.2617 2.1758 6.8594 1.4688 1.6367 3.4258 2.4727 5.8125 2.4727 2.2852 0 4.207-0.83594 5.7148-2.4844 1.4727-1.6172 2.2266-3.9531 2.2266-6.9375v-17.395h10.961c8.4648 0 14.965-1.8477 19.312-5.5 4.4219-3.6953 6.6719-9.1641 6.6719-16.258 0-3.3008-0.54297-6.3242-1.6211-8.9844-1.0859-2.6914-2.7031-5-4.8125-6.875zm-11.078 21.262c-0.95703 1.2891-2.3242 2.1953-4.1875 2.7812-1.9805 0.61328-4.5039 0.93359-7.5156 0.93359h-7.7227v-17.602h7.7227c6.957 0 9.7773 1.3867 10.902 2.5195 1.4961 1.5977 2.2227 3.6406 2.2227 6.2344-0.003906 2.1406-0.48047 3.8633-1.4219 5.1328z"/>
  <path d="m276.78 356.17c-2.7812-2.4336-5.9258-4.1172-9.3438-5.0039-3.3281-0.85938-7.3633-1.3008-11.977-1.3008h-17.414c-3.2188 0-5.625 0.77344-7.1562 2.3086-1.5312 1.5352-2.3086 3.9414-2.3086 7.1562v48.375c0 2.2695 0.19922 4.0859 0.60938 5.5469 0.46484 1.6602 1.4688 2.9531 2.9805 3.8516 1.4375 0.87109 3.457 1.2891 6.1484 1.2891h17.414c3.082 0 5.8984-0.19922 8.3711-0.59766 2.5195-0.41016 4.9102-1.125 7.1016-2.125 2.2109-1.0078 4.2695-2.3711 6.1406-4.0508 2.3398-2.1523 4.2891-4.625 5.7969-7.3633 1.4883-2.7305 2.6094-5.8281 3.3164-9.1953 0.70703-3.3398 1.0664-7.082 1.0664-11.109-0.007813-12.328-3.6289-21.676-10.746-27.781zm-11.637 46.27c-0.86719 0.75391-1.9062 1.3555-3.0938 1.7812-1.2461 0.44141-2.4531 0.72266-3.6055 0.82812-1.2148 0.11328-2.9297 0.17578-5.0977 0.17578h-8.8477v-42.219h7.543c3.9492 0 7.332 0.42969 10.066 1.2734 2.5547 0.77734 4.7578 2.668 6.543 5.625 1.832 3.0273 2.7656 7.7227 2.7656 13.961 0 8.8047-2.1055 15.047-6.2734 18.574z"/>
  <path d="m337.4 349.88h-31.5c-2.0977 0-3.8008 0.3125-5.1914 0.95312-1.4883 0.67578-2.6016 1.7773-3.3086 3.2773-0.65625 1.4023-0.97266 3.1172-0.97266 5.2422v50.758c0 3.0547 0.74609 5.4062 2.207 6.9844 1.4883 1.6172 3.4336 2.4414 5.7812 2.4414 2.3008 0 4.2305-0.80859 5.7344-2.4102 1.4648-1.582 2.207-3.9414 2.207-7.0156v-20.453h20.727c2.3203 0 4.1367-0.55859 5.3906-1.668 1.3047-1.1523 1.9648-2.6992 1.9648-4.6016 0-1.8984-0.64453-3.4492-1.9258-4.6094-1.2461-1.1367-3.0703-1.7109-5.4336-1.7109h-20.727v-14.316h25.047c2.4531 0 4.3398-0.58984 5.6172-1.7578 1.3047-1.1875 1.9648-2.7695 1.9648-4.6992 0-1.8906-0.66016-3.457-1.9727-4.6641-1.2812-1.168-3.168-1.75-5.6094-1.75z"/>
 </g>
</svg>
