<?xml version="1.0" encoding="UTF-8"?>
<svg width="512pt" height="512pt" version="1.1" viewBox="0 0 512 512" xmlns="http://www.w3.org/2000/svg">
 <g>
  <path d="m251.9 328.7v27.648h-6.6562c-3.0703 0-5.1211 2.0469-5.1211 5.1211 0 3.0703 2.0469 5.1211 5.1211 5.1211h24.062c3.0703 0 5.1211-2.0469 5.1211-5.1211 0-3.0703-2.0469-5.1211-5.1211-5.1211h-6.6562v-27.648c7.6797-1.0234 12.289-5.1211 15.359-8.7031 11.777-15.871 2.5586-45.566 1.5352-49.152-0.51172-2.0469-2.5586-3.5859-5.1211-3.5859h-34.305c-2.0469 0-4.0977 1.5352-5.1211 3.5859-1.0234 3.5859-9.7266 33.281 2.0469 49.152 2.5703 3.0703 7.1758 7.168 14.855 8.7031zm5.1211-9.7266c-5.6328 0-9.2148-1.5352-11.777-5.1211-3.0703-4.0977-4.0977-9.7266-4.0977-15.359 2.0469-1.0234 3.5859-1.5352 6.6562-1.5352 4.0977 0 5.6328 1.0234 8.1914 2.0469 3.0703 1.5352 6.6562 3.0703 12.801 3.0703h3.5859c-0.51172 4.6094-1.5352 9.2148-3.5859 12.289-2.5586 3.0742-6.1406 4.6094-11.773 4.6094zm13.312-41.473c1.0234 3.5859 2.0469 8.7031 2.5586 13.824-1.5352 0.51172-2.5586 0.51172-4.0938 0.51172-4.0977 0-5.6328-1.0234-8.1914-2.0469-3.0703-1.5352-6.6562-3.0703-12.801-3.0703-2.5586 0-4.0977 0.51172-6.1445 0.51172 0.51172-3.5859 1.0234-7.168 2.0469-9.7266z"/>
  <path d="m212.99 460.29c1.5352 1.0234 3.5859 1.0234 5.1211 0l37.887-21.504 37.887 21.504c1.0234 0.51172 1.5352 0.51172 2.5586 0.51172 1.0234 0 1.5352 0 2.5586-0.51172 1.5352-1.0234 2.5586-2.5586 2.5586-4.6094v-32.77h95.23c3.0703 0 5.1211-2.0469 5.1211-5.1211l0.007813-361.47c0-3.0703-2.0469-5.1211-5.1211-5.1211h-281.6c-3.0703 0-5.1211 2.0469-5.1211 5.1211v361.47c0 3.0703 2.0469 5.1211 5.1211 5.1211h95.23l0.003906 32.766c0 2.0469 1.0234 3.5859 2.5586 4.6094zm-20.48-117.76c-1.5352-0.51172-2.0469-1.5352-2.0469-2.0469s-0.51172-2.0469 0.51172-3.0703c3.5859-6.1445 2.0469-13.824-3.0703-17.922-1.0234-1.0234-1.5352-2.0469-1.5352-3.0703 0-1.0234 0-2.0469 1.5352-3.0703 5.1211-4.0977 6.6562-12.289 3.0703-17.922-1.0234-1.5352-0.51172-2.5586-0.51172-3.0703s1.0234-1.5352 2.0469-2.0469c6.6562-2.0469 10.238-9.2148 9.2148-15.871-0.51172-1.5352 0.51172-2.5586 1.0234-3.0703 0.51172-0.51172 1.5352-1.5352 3.0703-1.5352 7.168 0 12.801-5.1211 13.824-11.777 0-1.5352 1.0234-2.0469 1.5352-2.5586 0.51172-0.51172 1.5352-1.0234 3.0703 0 6.6562 2.5586 13.824 0 16.895-6.1445 0.51172-1.5352 2.0469-1.5352 2.5586-2.0469 0.51172 0 2.0469 0 3.0703 1.0234 5.1211 4.6094 12.801 4.6094 18.434 0 1.0234-1.0234 2.5586-1.0234 3.0703-1.0234 0.51172 0 2.0469 0.51172 2.5586 2.0469 3.5859 6.1445 10.754 8.7031 16.895 6.1445 1.5352-0.51172 2.5586 0 3.0703 0 0.51172 0.51172 1.5352 1.0234 1.5352 2.5586 1.0234 6.6562 7.168 11.777 13.824 11.777 1.5352 0 2.5586 1.0234 3.0703 1.5352 0.51172 0.51172 1.0234 1.5352 1.0234 3.0703-1.5352 6.6562 2.5586 13.312 9.2148 15.871 1.5352 0.51172 2.0469 1.5352 2.0469 2.0469s0.51172 2.0469-0.51172 3.0703c-3.5859 6.1445-2.0469 13.824 3.0703 17.922 1.0234 1.0234 1.5352 2.0469 1.5352 3.0703 0 1.0234 0 2.0469-1.5352 3.0703-5.1211 4.0977-6.6562 12.289-3.0703 17.922 1.0234 1.5352 0.51172 2.5586 0.51172 3.0703s-1.0234 1.5352-2.0469 2.0469c-6.6562 2.0469-10.238 9.2148-9.2148 15.871 0.51172 1.5352-0.51172 2.5586-1.0234 3.0703s-1.5352 1.5352-3.0703 1.5352c-6.6562 0-12.801 5.1211-13.824 11.777 0 1.5352-1.0234 2.0469-1.5352 2.5586-0.51172 0.51172-1.5352 1.0234-3.0703 0-6.6562-2.5586-13.824 0-16.895 6.1445-0.51172 1.5352-2.0469 1.5352-2.5586 2.0469-0.51172 0-2.0469 0-3.0703-1.0234-5.1211-4.6094-12.801-4.6094-18.434 0-1.0234 1.0234-2.5586 1.0234-3.0703 1.0234s-2.0469-0.51172-2.5586-2.0469c-2.5586-4.6094-7.168-7.168-12.289-7.168-1.5352 0-3.5859 0.51172-5.1211 1.0234-1.5352 0.51172-2.5586 0-3.0703 0-0.51172-0.51172-1.5352-1.0234-1.5352-2.5586-1.0234-6.6562-7.168-11.777-13.824-11.777-1.5352 0-2.5586-1.0234-3.0703-1.5352s-1.0234-1.5352-1.0234-3.0703c1.543-7.168-2.043-13.824-8.6992-15.871zm28.16 44.543c2.5586 0.51172 5.1211 0 7.168-0.51172 1.5352-0.51172 3.5859 0 4.6094 1.5352 2.0469 3.5859 5.6328 6.1445 9.7266 7.168h2.5586c2.0469 0 4.6094-0.51172 6.1445-1.5352v35.84l-30.207 16.895zm40.449 43.008v-35.84c2.5586 1.5352 5.6328 2.0469 8.7031 1.5352 4.0977-0.51172 7.6797-3.0703 9.7266-7.168 1.0234-1.5352 2.5586-2.0469 4.6094-1.5352 2.5586 1.0234 4.6094 1.0234 7.168 0.51172v59.902zm-140.8-17.406v-351.23h271.36v351.23h-90.113v-32.77c0.51172-1.0234 1.0234-2.5586 1.0234-3.5859 0.51172-1.5352 2.0469-3.0703 3.5859-3.0703 4.0977 0 8.1914-1.5352 10.754-5.1211 2.5586-3.0703 3.5859-7.6797 3.0703-11.777-0.51172-1.5352 0.51172-3.5859 2.5586-4.0977 4.0977-1.5352 7.168-4.6094 8.7031-8.1914 1.5352-3.5859 1.0234-8.1914-1.0234-11.777-1.0234-1.5352-0.51172-3.5859 1.0234-4.6094 3.0703-2.5586 5.1211-6.6562 5.1211-10.754 0-4.0977-2.0469-8.1914-5.1211-10.754-1.5352-1.0234-1.5352-3.0703-1.0234-4.6094 2.0469-3.5859 2.5586-8.1914 1.0234-11.777-1.5352-3.5703-4.6055-8.1758-8.7031-9.2031-1.5352-0.51172-2.5586-2.5586-2.5586-4.0977 1.0234-4.0977-0.51172-8.1914-3.0703-11.777-2.5586-3.0703-6.6562-5.1211-10.754-5.1211h-0.51172c-1.5352 0-3.0703-1.5352-3.5859-3.0703-0.51172-4.0977-3.0703-7.6797-6.6562-9.7266s-8.1914-2.5586-11.777-1.0234c-1.5352 0.51172-3.5859 0-4.6094-1.5352-2.0469-3.5859-5.6328-6.1445-9.7266-7.168-4.0977-0.51172-8.1914 0.51172-11.777 3.0703-1.5352 1.0234-3.5859 1.0234-4.6094 0-3.0703-2.5586-7.168-4.0977-11.777-3.0703-4.0977 0.51172-7.6797 3.0703-9.7266 7.168-1.0234 1.5352-2.5586 2.0469-4.6094 1.5352-4.0977-1.5352-8.1914-1.0234-11.777 1.0234s-6.1445 5.6328-6.6562 9.7266c-0.51172 1.5352-2.0469 3.0703-3.5859 3.0703-4.0977 0-8.1914 1.5352-10.754 5.1211-2.5586 3.5859-3.5859 7.6797-3.0703 11.777 0.51172 1.5352-0.51172 3.5859-2.5586 4.0977-4.0977 1.5352-7.168 4.6094-8.7031 8.1914-1.5352 3.5859-1.0234 8.1914 1.0234 11.777 1.0234 1.5352 0.51172 3.5859-1.0234 4.6094-3.0703 2.5586-5.1211 6.6562-5.1211 10.754s2.0469 8.1914 5.1211 10.754c1.5352 1.0234 1.5352 3.0703 1.0234 4.6094-2.0469 3.5859-2.5586 8.1914-1.0234 11.777s4.6094 7.168 8.7031 8.1914c1.5352 0.51172 2.5586 2.5586 2.5586 4.0977-1.0234 4.0977 0.51172 8.1914 3.0703 11.777 2.5586 3.0703 6.6562 5.1211 10.754 5.1211 1.5352 0 3.5859 1.0234 3.5859 3.0703 0 1.5352 0.51172 2.5586 1.0234 3.5859v32.77l-89.078-0.011718z"/>
  <path d="m172.03 114.18h169.98c3.0703 0 5.1211-2.0469 5.1211-5.1211 0-3.0703-2.0469-5.1211-5.1211-5.1211l-169.98 0.003906c-3.0703 0-5.1211 2.0469-5.1211 5.1211 0 3.0703 2.0508 5.1172 5.1211 5.1172z"/>
  <path d="m172.03 157.18h169.98c3.0703 0 5.1211-2.0469 5.1211-5.1211 0-3.0703-2.0469-5.1211-5.1211-5.1211l-169.98 0.003906c-3.0703 0-5.1211 2.0469-5.1211 5.1211 0 3.0703 2.0508 5.1172 5.1211 5.1172z"/>
  <path d="m346.62 195.59c0-3.0703-2.0469-5.1211-5.1211-5.1211h-169.47c-3.0703 0-5.1211 2.0469-5.1211 5.1211 0 3.0703 2.0469 5.1211 5.1211 5.1211h169.98c2.5586-0.003906 4.6094-2.5625 4.6094-5.1211z"/>
 </g>
</svg>
