<?xml version="1.0" encoding="UTF-8"?>
<svg width="512pt" height="512pt" version="1.1" viewBox="0 0 512 512" xmlns="http://www.w3.org/2000/svg">
 <g fill="#de0a11" fill-rule="evenodd">
  <path d="m137.15 40.789c0.67578 6.2578-0.87109 10.293-7.1719 9.5703-0.67578-6.2578 0.87109-10.293 7.1719-9.5703z"/>
  <path d="m302.21 40.789h9.5742c2.793 8.3008-13.375 11.121-9.5742 0z"/>
  <path d="m161.07 52.746c6.2969-0.71875 7.8516 3.3164 7.1719 9.5703h-9.5703c-1.0039-5 1.6484-6.332 2.3984-9.5703z"/>
  <path d="m412.26 55.141h7.1797v9.5703h-9.5742c-0.29688-4.2891 2.9297-5.0391 2.3945-9.5703z"/>
  <path d="m211.31 62.316h7.1797c0.625 7.8008-2.8438 11.516-9.5742 11.965-0.76172-5.5469 0.38672-9.1836 2.3945-11.965z"/>
  <path d="m455.32 64.711h7.1797v9.5703c-7.9922 2.3984-7.8516-3.3164-7.1797-9.5703z"/>
  <path d="m180.21 67.105c6.0938 0.23828 5.6562 8.9141 2.3945 11.957-9.7891 1.3164-8.0859-10.328-2.3945-11.957z"/>
  <path d="m268.72 74.281c4.2031 0.57422 5.4609 4.1133 4.7852 9.5703h-7.1719c-1.0078-5.0039 1.6367-6.3359 2.3867-9.5703z"/>
  <path d="m134.76 141.26c-46.352 10.805-54.363-38.133-31.094-57.414 13.473 2.918 45.965-10.809 52.621 14.352 4.6133 17.418-8.1562 32.73-21.527 43.062zm-26.309-11.957c9.0508 5.8359 19.434 4.0781 31.102 2.3906 7.8008-6.7109 15.992-31.254 2.3906-38.273 9.9414 25.449-20.672 25.773-33.492 35.883z"/>
  <path d="m65.387 91.023c1.0977 7.4766-5.1094 7.6523-11.957 7.1797v-7.1797c3.1406-3.0742 8.8164-3.0742 11.957 0z"/>
  <path d="m388.34 91.023h7.1719c0.097657 7.2773 1.3984 15.746-7.1719 14.352-3.2734-3.0586-3.2734-11.293 0-14.352z"/>
  <path d="m316.56 105.38c-0.32031 23.859-0.63281 42.547-2.4023 59.812-29.977-3.6914-55.512 13.512-52.621 50.234 12.625 0.35938 29.906-0.33594 45.449-2.3945 1.7734 18.223-6.5234 34.719 0 50.238-6.1172 10.621-22.953 10.52-40.66 9.5742-3.3047 6.9219-5.4688 30.094 2.3906 33.484-10.934 9.8633-8.1992 43.254-4.7852 59.812-12.879 12.629-42.082 8.9492-62.195 14.352-10.617-31.168-10.512-73.609-9.5703-110.05-10.426-4.0156-25.805 5.4844-40.668 4.7891-3.6016-17.137-3.5195-37.945-4.7773-57.418 21.445-5.2969 28.5 1.7227 47.836-4.7852 0.94141-75.617 45.047-108.06 122-107.65zm-110.03 110.05c-6.5469 13.391-32.746 7.1289-47.844 11.957-1.4102 13.938 2.3203 28.086 0 35.887 16.875 1.7227 24.922-5.375 40.668-4.7852 5.3477 35.324-1.707 83.035 14.352 107.65 6.6602 1.6836 27.75-0.22656 38.27-2.4023-2.8438-32.066 0.53516-67.301 2.3945-98.07 14.613 0.25781 27.152-1.543 38.27-4.7891 4.8125-7.1445 1.3594-22.566 2.4023-33.492-13.125-7.4062-32.238 5.4688-45.453-2.3906-0.75-42.219 15.734-67.195 55.016-69.375-0.015625-17.453 0.53516-27.434 2.3906-38.273-63.285-7.5898-108.94 33.969-100.46 98.082z"/>
  <path d="m218.49 110.16h4.7773c-0.4375 2.0312 0.93359 2.2539 2.3945 2.3906v4.7852c-2.0352-0.4375-2.2539 0.93359-2.3945 2.3906h-4.7773c0.4375-2.0312-0.93359-2.2539-2.3945-2.3906v-4.7852c2.0391 0.44531 2.2578-0.93359 2.3945-2.3906z"/>
  <path d="m354.84 114.95h9.5625c1.0234 5-1.6328 6.3242-2.3828 9.5703-6.3086 0.71484-7.8516-3.3164-7.1797-9.5703z"/>
  <path d="m376.38 134.08v7.1797c-4.2422-0.54688-11.988 2.4062-9.582-4.7852 2.1445-1.8594 5.4141-2.5703 9.582-2.3945z"/>
  <path d="m161.07 143.66c12.75-1.4805 11.035 13.613-2.3945 9.5703-1.0078-5.0039 1.6445-6.3398 2.3945-9.5703z"/>
  <path d="m335.7 146.05c4.3242 4.1055-0.73828 9.4102-7.1797 9.5703-0.66797-6.2539 0.875-10.289 7.1797-9.5703z"/>
  <path d="m400.29 155.61h7.1797c1.0195 5-1.6328 6.332-2.3828 9.5742-4.2109-0.57812-5.457-4.1172-4.7969-9.5742z"/>
  <path d="m429 174.75v7.1797c-4.2422-0.54688-11.969 2.4102-9.5703-4.7852 2.1289-1.8594 5.4102-2.5703 9.5703-2.3945z"/>
  <path d="m91.703 179.54c3.8633-0.67578 4.1172 2.2539 7.1719 2.3906 0.71875 6.3047-3.3125 7.8516-9.5625 7.1719-1.0156-5 1.6367-6.3398 2.3906-9.5625z"/>
  <path d="m173.04 179.54c1.1094 7.4883-2.082 10.68-9.5703 9.5625-1.1133-7.4883 2.0781-10.68 9.5703-9.5625z"/>
  <path d="m280.68 179.54c7.1953-2.4102 4.2383 5.3242 4.7773 9.5625h-7.1719c-1.0117-5 1.6484-6.3398 2.3945-9.5625z"/>
  <path d="m412.26 181.93c0.67578 6.2539-0.875 10.293-7.1719 9.5703-1.2695-1.9219-2.4961-3.8867-2.4023-7.1719 2.1328-1.8594 5.4023-2.5742 9.5742-2.3984z"/>
  <path d="m383.55 189.11c1 18.551-7.0586 28.023-26.324 26.316-15.473-16.875 8.625-42.629 26.324-26.316zm-7.1758 7.1719c1.0742-3.9102-13.039-3.9102-11.969 0 0.29297 3.4102 13.113 9.8594 11.969 0z"/>
  <path d="m330.92 193.89h-9.582c-1.8672-9.2148 11.465-9.2148 9.582 0z"/>
  <path d="m98.879 198.67h7.1797c0.67188 6.2578-0.87109 10.293-7.1797 9.5742-3.9883-4.7539 0.21484-3.043 0-9.5742z"/>
  <path d="m161.07 198.67c7.1094 0.21094 6.3984 14.27-2.3945 11.965-0.75781-5.5469 0.38672-9.1875 2.3945-11.965z"/>
  <path d="m299.82 198.67c0.67188 6.2578-0.86328 10.293-7.1797 9.5742-0.67188-6.2617 0.88281-10.297 7.1797-9.5742z"/>
  <path d="m448.14 198.67c9.2148-1.8828 9.2148 11.453 0 9.5742v-9.5742z"/>
  <path d="m419.44 217.81h7.1797c0.67187 6.2578-0.875 10.293-7.1797 9.5703v-9.5703z"/>
  <path d="m366.8 232.16h9.582c-0.30078 6.0859-3.4883 9.2773-9.582 9.5703v-9.5703z"/>
  <path d="m110.84 234.55c9.9883 1.5977 1.1094 14.855-4.7852 7.1719 0.83984-3.1406 4.2031-3.7539 4.7852-7.1719z"/>
  <path d="m72.562 236.95c13.613 9.7109-13.895 15.973 0 0z"/>
  <path d="m96.488 241.73c3.8633-0.67188 4.1172 2.2656 7.1797 2.3945 0.71875 6.3047-3.3164 7.8516-9.5742 7.1797-1.0117-5.0039 1.6445-6.3359 2.3945-9.5742z"/>
  <path d="m120.41 263.26c7.4961 1.6484 3.1172 6.3789 2.3906 11.969-10.691 0.39453-6.1719-8.4219-2.3906-11.969z"/>
  <path d="m388.34 265.65c0.68359 6.2539-0.87109 10.293-7.1797 9.5742-0.67578-6.2617 0.875-10.297 7.1797-9.5742z"/>
  <path d="m409.86 268.05h4.7852c-0.43359 2.0312 0.93359 2.2539 2.3945 2.3906v4.7891c-2.0234-0.44922-2.2539 0.92578-2.3945 2.3828h-4.7852c0.4375-2.0352-0.92578-2.2539-2.3945-2.3828v-4.7891c2.0352 0.44141 2.2578-0.94141 2.3945-2.3906z"/>
  <path d="m318.96 287.19c6.2969-0.72656 7.8516 3.3125 7.1797 9.5703h-9.5742c-0.29297-4.3047 2.9258-5.0586 2.3945-9.5703z"/>
  <path d="m292.64 291.96c4.2227 0.57422 5.4688 4.125 4.7891 9.5742h-7.1719c-1.0156-5.0039 1.6367-6.3242 2.3828-9.5742z"/>
  <path d="m393.11 301.54c2.4688 9.7578-11.172 12.75-9.5625 2.3945 2.1172-1.8594 5.4023-2.5742 9.5625-2.3945z"/>
  <path d="m77.352 330.25c6.3047-0.72266 7.8516 3.3164 7.1719 9.582h-9.5625c-1.0156-5.0156 1.6328-6.3516 2.3906-9.582z"/>
  <path d="m170.64 332.64c-0.28906 6.0703-3.4766 9.2734-9.5625 9.5586-7.4531-6.5859 2.9727-17.016 9.5625-9.5586z"/>
  <path d="m129.98 337.43c1.668 8.8398-3.7891 10.562-11.957 9.5742v-7.1719c2.7695-2.0273 6.4102-3.1641 11.957-2.4023z"/>
  <path d="m345.27 346.99h-9.5742c-1.8672-9.207 11.457-9.207 9.5742 0z"/>
  <path d="m350.05 349.38v7.1797c-7.625-1.418-7.3945 4.4844-11.957 0 2.1953-4.1953 4.4609-8.3086 11.957-7.1797z"/>
  <path d="m156.29 361.35v9.5586h-9.5625c-1.1133-7.4805 2.0781-10.684 9.5625-9.5586z"/>
  <path d="m129.98 375.7c-1.0586 10.906-7.7695 16.145-14.352 21.531-12.855-5.9453-14.855-9.5273-14.359-26.328 6.5234-12.684 24.938-5.3125 28.711 4.7969zm-16.75 9.5625c8.7969 2.3047 9.5117-11.734 2.3945-11.957 0.98047 5.7617-4.375 5.1992-2.3945 11.957z"/>
  <path d="m173.04 397.23c6.2578-0.67578 10.293 0.86328 9.5703 7.1719-2.1289 1.8594-5.4062 2.5703-9.5703 2.3906v-9.5625z"/>
  <path d="m414.64 397.23c3.875-0.67578 4.1172 2.2539 7.1797 2.3828 0.72266 6.2969-3.3047 7.8438-9.5703 7.1797-1.0195-5 1.6367-6.3281 2.3906-9.5625z"/>
  <path d="m96.488 411.59c-6.7656-1.9805-6.1953 3.3672-11.965 2.3906-4.0195-11.367 13.77-13.199 11.965-2.3906z"/>
  <path d="m254.37 411.59c4.2031 0.57422 5.4492 4.1055 4.7773 9.5625h-7.1797c-1.0039-5 1.6523-6.332 2.4023-9.5625z"/>
  <path d="m455.32 411.59c1.9805 6.7578-3.3789 6.1992-2.4023 11.957-3.4922-2.0859-9.2617-1.9062-7.1719-9.5703 2.1328-1.8594 5.4023-2.5742 9.5742-2.3867z"/>
  <path d="m271.11 413.98c1.9805 6.7656-3.3672 6.1914-2.3906 11.969-7.1133-0.22266-6.3945-14.281 2.3906-11.969z"/>
  <path d="m182.61 430.72c3.7891 0.19531 9.125-1.1484 9.5703 2.3945 2.6094 8.3945-14.68 6.4062-9.5703-2.3945z"/>
  <path d="m330.92 430.72c3.9766 4.75-0.21484 3.0391 0 9.5742-9.2031 1.8711-9.2031-11.457 0-9.5742z"/>
  <path d="m82.137 435.5c-1.4453 4.9453-3.6992 9.0625-11.965 7.1797v-7.1797c3.1484-3.0703 8.8164-3.0703 11.965 0z"/>
  <path d="m151.51 435.5c0.72266 6.2969-3.3164 7.8438-9.5703 7.1797-0.71484-6.3086 3.3164-7.8477 9.5703-7.1797z"/>
  <path d="m445.75 435.5c6.2578-0.67188 10.285 0.87109 9.5742 7.1797-4.4922 4.6953-11.52 1.3828-9.5742-7.1797z"/>
  <path d="m273.5 442.68c9.2031-1.8789 9.2031 11.457 0 9.5703-3.9883-4.7578 0.21094-3.0469 0-9.5703z"/>
  <path d="m98.879 447.46c0.67578 6.2539-0.87109 10.293-7.1719 9.5625-0.67969-6.2578 0.86719-10.285 7.1719-9.5625z"/>
  <path d="m292.64 449.86c7.2031-2.4102 4.2422 5.332 4.7891 9.5703h-7.1719c-1.0156-5.0078 1.6367-6.3359 2.3828-9.5703z"/>
  <path d="m39.078 454.64c7.5508 0.41406 14.27 1.6719 14.352 9.5625-5.2266 4.5234-15.219-0.69531-14.352-9.5625z"/>
  <path d="m218.49 454.64h9.5703c1.1094 7.4766-2.082 10.672-9.5703 9.5625v-9.5625z"/>
  <path d="m364.41 454.64c9.9961 1.5859 1.1211 14.844-4.7773 7.1719 0.84375-3.1328 4.2031-3.7695 4.7773-7.1719z"/>
  <path d="m326.14 468.99c4.3242 4.1016-0.73438 9.3984-7.1797 9.5703-0.66797-6.2656 0.88281-10.293 7.1797-9.5703z"/>
  <path d="m165.86 471.38c6.3047-0.71094 7.8516 3.3047 7.1797 9.5703h-9.5703c-1.0156-5.0078 1.6406-6.3242 2.3906-9.5703z"/>
  <path d="m338.1 430.72c-25.844-57.254 55.25-66.605 55.016-19.133-0.125 27.34-32.234 34.617-55.016 19.133zm4.7773-23.922c9.75-4.6094 20.309-8.4062 31.105-11.965-11.27-11.77-29.27-0.38672-31.105 11.965z"/>
  <path d="m342.88 38.398c44.961 6.9727 95.34-42.008 129.18-11.965 34.371 30.504-25.434 78.023-40.664 100.47 28.211 32.695 54.938 43.969 50.234 93.297-2.9258 30.816-33.25 52.453-38.273 78.938-9.5977 50.609 20.867 77.105 40.668 110.05-2.6914 18.027 5.6875 55.078-9.5742 66.98-28.855 7.582-42.336-15.148-64.59-21.527-26.168 15.348-53.516 42.445-88.52 38.27-21.543-2.5664-38.109-22.648-59.797-23.918-32.387-1.8945-46.461 19.434-76.551 33.484-32.066-0.52344-51.473-27.199-81.336-28.707-27.129-1.3477-57.957 29.211-83.73 2.4023-8.7422-40.266 19.16-61.305 33.492-86.117 1.0234-14.074-11.656-19.512-11.965-31.105-0.8125-30.84 40.398-63.379 14.352-100.47-50.559-11.445-2.3906-57.879-2.3906-88.512 0-36.387-45.488-53.414-31.102-102.86 5.1133-17.555 24.113-47.91 43.059-47.848 11.059 0.039063 21.742 10.234 33.492 11.965 29.762 4.3789 60.391-24.703 86.141-19.141 22.203 4.8008 30.762 29.844 62.195 28.707 28.219-13.965 76.641-45.812 95.676-2.3906zm-172.23-7.1797c-7.5391 0.35938-1.0078-13.34-11.957-9.5703-23.234 7.625-36.117 19.672-62.195 16.742-15.207-1.707-31.402-15.281-45.453-7.1797-8.1836 19.984-27.121 35.047-23.926 59.812 2.5703 19.859 21.379 39.418 33.492 47.848-4.4492 10.98 0.74609 16.957 0 26.316-1.9609 24.621-23.762 49.629-21.531 64.586 2.6211 17.562 25.184 20.004 35.887 35.887-2.2344 2.5586-8.8281 0.74609-7.1797 7.1797 7.9375 33.184-11.844 57.938-16.75 86.117 33.023 45.297-40.977 61.055-21.531 114.82 7.4531 1.3125 15.594 1.9531 21.531 4.7891-1.4492-9.4219 5.3516-10.594 11.965-11.965v11.965c43.207-30.938 82.359 8.7227 124.39 14.348 26.566-13.012 45.363-36.762 81.336-33.492 21.777 1.9805 42.145 23.301 62.203 23.926 28.809 0.875 58.723-35.078 78.938-35.887 24.32-0.97656 33.648 29.621 62.195 21.527 23-51.859-28.281-81.977-35.887-124.39-11.293-63.074 44.242-87.871 38.281-143.53-1.1484-10.688-6.8789-20.594-11.957-35.879-14.051-13.113-36.977-13.086-38.281-33.496-1.9922-31.016 84.992-63.922 35.887-102.86-41.047-4.3789-69.223 13.789-119.6 19.133-7.1602-23.273-52.148-39.102-62.219-7.1758-10.82-4.2227-21.906 6.7188-35.879 7.1719-25.941 0.85937-46.938-19.281-64.59-28.707-3.332 3.0508-1.0391 11.723-7.1758 11.965z"/>
 </g>
</svg>
