<?xml version="1.0" encoding="UTF-8"?>
<svg width="512pt" height="512pt" version="1.1" viewBox="0 0 512 512" xmlns="http://www.w3.org/2000/svg">
 <g>
  <path d="m256 0c-33.617 0-66.906 6.6211-97.965 19.488-31.062 12.863-59.281 31.719-83.055 55.492-23.773 23.773-42.629 51.992-55.492 83.055-12.867 31.059-19.488 64.348-19.488 97.965 0 67.895 26.973 133.01 74.98 181.02 48.012 48.008 113.12 74.98 181.02 74.98s133.01-26.973 181.02-74.98c48.008-48.008 74.98-113.12 74.98-181.02s-26.973-133.01-74.98-181.02c-48.008-48.008-113.12-74.98-181.02-74.98zm0 28.91c29.492 0 58.695 5.875 85.941 17.289 27.246 11.41 52.004 28.137 72.855 49.227 20.855 21.086 37.395 46.121 48.684 73.672 11.285 27.551 17.094 57.082 17.094 86.902 0 60.227-23.66 117.99-65.777 160.57-42.113 42.59-99.234 66.512-158.8 66.516-29.488 0-58.691-5.875-85.941-17.289-27.246-11.41-52-28.137-72.855-49.227-20.852-21.086-37.395-46.121-48.68-73.672-11.289-27.551-17.098-57.078-17.098-86.902 0-29.82 5.8086-59.352 17.094-86.902 11.289-27.551 27.828-52.586 48.684-73.672 20.852-21.09 45.609-37.816 72.855-49.23 27.25-11.41 56.453-17.285 85.941-17.285z" fill="#de0a11"/>
  <path d="m394.34 255.83c-0.050781-1.1562-0.5625-2.2617-1.5117-3.0039l-59.117-46.27c-0.71094-0.55469-1.582-0.85938-2.4844-0.85938h-15.18c-2.2266 0-4.0312 1.8047-4.0312 4.0312 0 2.2266 1.8047 4.0312 4.0312 4.0312h13.789l48.816 38.207h-65.422c-2.2266 0-4.0312 1.8047-4.0312 4.0312s1.8047 4.0312 4.0312 4.0312h73.086v120.11h-83.164v-60.055h-8.0625l0.003906 60.055h-76.578l-0.003906-60.055h-8.0625l0.003906 60.055h-87.461v-120.11h75.773c2.2266 0 4.0312-1.8047 4.0312-4.0312s-1.8047-4.0312-4.0312-4.0312h-67.02l54.586-38.207h11.625c2.2266 0 4.0312-1.8047 4.0312-4.0312 0-2.2266-1.8047-4.0312-4.0312-4.0312h-12.898c-0.82422 0-1.6328 0.25391-2.3125 0.73047l-66.102 46.27c-1.0898 0.76562-1.707 1.9961-1.7148 3.2773 0 0.007813-0.003906 0.015626-0.003906 0.027344v128.17c0.003906 2.2227 1.8086 4.0273 4.0352 4.0273h271.39c2.2266 0 4.0312-1.8047 4.0312-4.0312v-128.17c0-0.0625-0.023437-0.11328-0.039062-0.16797z"/>
  <path d="m208.16 188.71c3.2227 0.94922 5.4102 2.7461 6.1602 5.0664 0.75 2.3164 0.039063 5.0586-2.0078 7.7227-3.7695 4.8984-4.8984 8.9766-3.3516 12.121 0.67969 1.3789 2.4688 3.6953 6.8203 3.6953 1.9531 0 4.3047-0.48047 6.9805-1.4336 3.5625-1.2656 6.7891-0.85547 8.7266 1.1367 1.4688 1.5039 2.2266 3.9062 2.1523 6.7656-0.13672 5.0312 0.76953 8.4805 2.7812 10.547 1.2148 1.2539 2.8281 1.9453 4.5352 1.9453 3.2227 0 6.3633-2.2891 9.5898-6.9961 3.7969-5.5391 9.6445-5.5352 13.441 0 3.2227 4.707 6.3633 6.9961 9.5898 6.9961 1.707 0 3.3164-0.69141 4.5352-1.9453 2.0117-2.0703 2.9219-5.5195 2.7812-10.547-0.082031-2.8555 0.68359-5.2578 2.1484-6.7656 1.9336-1.9883 5.1562-2.4062 8.7266-1.1367 2.6758 0.95312 5.0273 1.4336 6.9805 1.4336 4.3516 0 6.1367-2.3164 6.8164-3.6953 1.5469-3.1484 0.42188-7.2227-3.3516-12.121-2.0469-2.6602-2.7578-5.4023-2.0039-7.7227 0.75-2.3164 2.9414-4.1172 6.1602-5.0664 6.5859-1.9414 9.9258-4.9297 9.9258-8.8906 0-3.9609-3.3398-6.9492-9.9258-8.8906-3.2227-0.94922-5.4102-2.7461-6.1602-5.0664-0.75-2.3164-0.042969-5.0586 2.0039-7.7188 3.7734-4.8984 4.9023-8.9766 3.3516-12.121-0.67578-1.3789-2.4688-3.6953-6.8164-3.6953-1.9531 0-4.3047 0.48047-6.9805 1.4336-3.5625 1.2695-6.7891 0.85938-8.7266-1.1367-1.4648-1.5039-2.2266-3.9062-2.1484-6.7656 0.13672-5.0312-0.76953-8.4805-2.7812-10.547-1.2188-1.25-2.832-1.9453-4.5352-1.9453-3.2266 0-6.3633 2.2891-9.5898 6.9961-3.7969 5.5391-9.6445 5.5391-13.441 0-3.2227-4.707-6.3633-6.9961-9.5898-6.9961-1.707 0-3.3164 0.69141-4.5352 1.9453-2.0117 2.0703-2.9258 5.5156-2.7812 10.547 0.078125 2.8555-0.68359 5.2617-2.1523 6.7695-1.1914 1.2227-2.8555 1.8672-4.8125 1.8672-1.2266 0-2.5391-0.25-3.9102-0.73438-2.6758-0.95312-5.0273-1.4336-6.9805-1.4336-4.3516 0-6.1406 2.3164-6.8203 3.6953-1.5469 3.1445-0.41797 7.2227 3.3516 12.121 2.0469 2.6641 2.7617 5.4023 2.0078 7.7227-0.75 2.3164-2.9414 4.1172-6.1602 5.0664-6.5859 1.9414-9.9297 4.9297-9.9297 8.8906 0.003906 3.957 3.3398 6.9453 9.9258 8.8867zm2.2773-10.043c5.7656-1.6992 9.9766-5.457 11.555-10.305 1.5781-4.8516 0.37891-10.367-3.2891-15.129-0.89844-1.1719-1.4531-2.0742-1.8008-2.7344 0.73438 0.12109 1.7656 0.36719 3.1562 0.86328 2.2422 0.79687 4.4648 1.2031 6.6133 1.2031 4.125 0 7.8828-1.5273 10.586-4.3086 3-3.082 4.5703-7.5586 4.4336-12.609-0.042968-1.4766 0.039063-2.5312 0.15234-3.2734 0.52734 0.53125 1.2109 1.3398 2.0469 2.5586 3.3984 4.9609 8.2695 7.8008 13.371 7.8008 5.1016 0 9.9727-2.8438 13.371-7.8047 0.83594-1.2148 1.5234-2.0234 2.0469-2.5547 0.11328 0.73828 0.19531 1.7969 0.15234 3.2734-0.13672 5.0508 1.4336 9.5273 4.4297 12.609 4.1133 4.2305 10.668 5.4375 17.207 3.1094 1.3945-0.49609 2.4258-0.74219 3.1562-0.86328-0.33984 0.66406-0.89844 1.5625-1.8008 2.7344-3.668 4.7617-4.8633 10.277-3.2891 15.125 1.5781 4.8516 5.7891 8.6094 11.551 10.309 1.4141 0.41406 2.3945 0.82031 3.0625 1.1562-0.66797 0.33594-1.6484 0.73828-3.0625 1.1562-5.7617 1.6992-9.9727 5.457-11.551 10.309-1.5742 4.8477-0.37891 10.363 3.2891 15.129 0.89844 1.168 1.4531 2.0703 1.8008 2.7344-0.73438-0.12109-1.7656-0.36719-3.1562-0.86328-6.5391-2.3242-13.09-1.1172-17.207 3.1094-2.9961 3.082-4.5703 7.5586-4.4297 12.609 0.042969 1.4766-0.039062 2.5352-0.15234 3.2734-0.52734-0.53125-1.2109-1.3398-2.0469-2.5586-3.3984-4.9609-8.2695-7.8008-13.371-7.8008-5.1016 0-9.9727 2.8438-13.371 7.8008-0.83594 1.2188-1.5234 2.0234-2.0469 2.5586-0.11328-0.73828-0.19531-1.7969-0.15234-3.2734 0.13672-5.0508-1.4336-9.5273-4.4297-12.605-4.1094-4.2227-10.656-5.4336-17.203-3.1094-1.3945 0.49609-2.4258 0.74219-3.1562 0.86328 0.33984-0.66406 0.89453-1.5625 1.8008-2.7344 3.668-4.7617 4.8633-10.277 3.2891-15.129-1.5781-4.8477-5.7891-8.6055-11.555-10.305-1.4141-0.41406-2.3945-0.82031-3.0625-1.1562 0.66406-0.35156 1.6445-0.75391 3.0625-1.168z"/>
  <path d="m257.27 213.76c18.711 0 33.938-15.227 33.938-33.938 0-18.711-15.223-33.938-33.938-33.938-18.711 0-33.938 15.227-33.938 33.938 0.003906 18.711 15.227 33.938 33.938 33.938zm0-59.812c14.27 0 25.875 11.609 25.875 25.875 0 14.27-11.609 25.875-25.875 25.875-14.27 0-25.875-11.609-25.875-25.875 0-14.27 11.609-25.875 25.875-25.875z"/>
  <path d="m223.55 222.05-29.934 87.672 24.141-7.3906 13.656 25.219 25.246-90.621-7.7617-2.1602-19.895 71.402-7.3008-13.477-15.359 4.7031 24.836-72.742z"/>
  <path d="m286.23 306.17-19.895-71.402-7.7656 2.1602 25.246 90.621 13.66-25.219 24.141 7.3906-29.934-87.672-7.6289 2.6055 24.832 72.742-15.355-4.7031z"/>
  <path d="m138.31 346.28v-69.324h44.336v-8.0586h-52.395v77.383z"/>
  <path d="m380.01 346.28v-77.383h-52.398v8.0586h44.336v69.324z"/>
  <path d="m133.88 118.15h8.0625v11.305h-8.0625z"/>
  <path d="m133.88 140.72h8.0625v11.305h-8.0625z"/>
  <path d="m143.54 131.05h11.305v8.0625h-11.305z"/>
  <path d="m120.97 131.05h11.305v8.0625h-11.305z"/>
  <path d="m162.1 162.89h8.0625v11.305h-8.0625z"/>
  <path d="m162.1 185.46h8.0625v11.305h-8.0625z"/>
  <path d="m171.76 175.79h11.305v8.0625h-11.305z"/>
  <path d="m149.19 175.79h11.305v8.0625h-11.305z"/>
  <path d="m361.6 179.82h8.0625v11.305h-8.0625z"/>
  <path d="m361.6 202.39h8.0625v11.305h-8.0625z"/>
  <path d="m371.26 192.73h11.305v8.0625h-11.305z"/>
  <path d="m348.69 192.73h11.309v8.0625h-11.309z"/>
  <path d="m347.76 119.76h8.0625v11.305h-8.0625z"/>
  <path d="m347.76 142.33h8.0625v11.305h-8.0625z"/>
  <path d="m357.43 132.67h11.305v8.0625h-11.305z"/>
  <path d="m334.85 132.67h11.309v8.0625h-11.309z"/>
  <path d="m248.33 195.16h0.015625c1.0938 0 2.1367-0.44531 2.8945-1.2266l24.184-25.008c1.5469-1.6016 1.5039-4.1523-0.09375-5.6992-1.6016-1.543-4.1484-1.5039-5.6992 0.09375l-21.266 21.992-5.5703-5.8477c-1.5352-1.6172-4.0898-1.6719-5.6992-0.13672-1.6133 1.5352-1.6758 4.0898-0.13672 5.6992l8.4648 8.8867c0.76172 0.78906 1.8086 1.2422 2.9062 1.2461z"/>
 </g>
</svg>
